<svg width="212" height="378" fill="none" xmlns="http://www.w3.org/2000/svg"><path fill-rule="evenodd" clip-rule="evenodd" d="M136.386 0H196c8.837 0 16 7.163 16 16v235.614l-24.598 24.598a2.689 2.689 0 0 1-3.804 0l-159.81-159.81a2.69 2.69 0 0 1 0-3.804L136.386 0z" fill="#57D5F3"/><path fill-rule="evenodd" clip-rule="evenodd" d="M73.286 0h5.007c-.334 5.947-.022 11.59.897 16.975 1.613 9.454 5.072 18.128 10.393 26.845 4.169 6.83 8.68 12.675 16.909 22.405l1.254 1.48 1.254 1.48a944.39 944.39 0 0 1 2.499 2.959c9.109 10.839 14.258 17.986 18.241 26.187 5.059 10.421 7.133 21.108 5.931 33.051-2.747 27.285-22.865 61.259-65.326 107.127C22.366 290.338 6.101 336.794 21.76 378h-5.482c-15.316-42.304 1.415-89.973 50.398-142.888 41.789-45.142 61.406-78.271 64.02-104.231 1.106-10.992-.788-20.755-5.454-30.366-3.756-7.736-8.709-14.609-17.57-25.154-.727-.865-1.47-1.745-2.487-2.944l-1.253-1.478-1.258-1.485c-8.385-9.914-13.02-15.921-17.359-23.029-5.635-9.23-9.328-18.492-11.054-28.61C73.293 12.14 72.956 6.217 73.286 0zm48.097 0h5.433c-3.794 8.107-3.369 16.79.684 26.483 3.697 8.84 10.296 18.536 20.701 31.018 5.934 7.119 29.334 33.366 31.318 35.648 13.398 15.414 24.106 29.148 32.481 42.325v9.638c-8.73-15.068-20.615-30.69-36.255-48.683-1.935-2.227-25.387-28.532-31.385-35.726-10.698-12.834-17.541-22.889-21.473-32.291-4.302-10.288-4.924-19.683-1.504-28.412zM212 275.67v9.669a224.696 224.696 0 0 1-7.964 11.739C182.471 326.853 167.9 353.814 160.329 378h-5.149c7.615-25.157 22.548-53.122 44.807-83.855 4.513-6.232 8.513-12.388 12.013-18.475z" fill="#fff"/><path fill-rule="evenodd" clip-rule="evenodd" d="M119.993 188.901l27.595-7.913a.926.926 0 0 1 1.145.635l11.231 39.166a.926.926 0 0 1-.635 1.146l-27.595 7.913a.926.926 0 0 0-.635 1.145l7.913 27.595a.926.926 0 0 1-.635 1.145L99.21 270.964a.926.926 0 0 1-1.145-.635l-7.913-27.595a.926.926 0 0 0-1.145-.635l-27.595 7.913a.926.926 0 0 1-1.145-.635l-11.23-39.167a.926.926 0 0 1 .634-1.145l27.595-7.913a.925.925 0 0 0 .635-1.145l-7.913-27.595a.926.926 0 0 1 .635-1.145l39.167-11.231a.926.926 0 0 1 1.145.635l7.913 27.595a.926.926 0 0 0 1.145.635z" fill="#FFF1A1"/><path fill-rule="evenodd" clip-rule="evenodd" d="M143.308 226.529l-11.574 3.318a.927.927 0 0 0-.635 1.146l7.913 27.595a.926.926 0 0 1-.635 1.145L99.21 270.964a.927.927 0 0 1-1.145-.635l-7.913-27.595a.926.926 0 0 0-1.145-.635l-3.588 1.029c-1.486-6.204-3.803-11.579-7.395-15.575-6.579-7.318-15.793-13.422-24.594-19.566l23.836-6.835a.925.925 0 0 0 .635-1.145l-7.913-27.595a.926.926 0 0 1 .635-1.145l27.698-7.943c-4.751 28.681 2.355 46.186 44.987 63.205z" fill="#FEE245"/><path fill-rule="evenodd" clip-rule="evenodd" d="M23.27 288.112l22.619 22.619a.38.38 0 0 1 0 .538l-22.62 22.619a.38.38 0 0 1-.538 0L.11 311.269a.38.38 0 0 1 0-.538l22.62-22.619a.38.38 0 0 1 .538 0zM68.094 338.039l7.867 7.867a.133.133 0 0 1 0 .188l-7.867 7.867a.132.132 0 0 1-.188 0l-7.867-7.867a.133.133 0 0 1 0-.188l7.867-7.867a.132.132 0 0 1 .188 0z" fill="#FFF1A1"/></svg>