<svg width="80" height="80" viewBox="0 0 80 80" fill="none" xmlns="http://www.w3.org/2000/svg">
<path d="M71.7419 68.6803L47.5 27.7178V5C47.5 4.30969 46.9409 3.75 46.25 3.75C45.5591 3.75 45 4.30969 45 5H35C35 4.30969 34.4409 3.75 33.75 3.75C33.0591 3.75 32.5 4.30969 32.5 5V27.7178L8.25812 68.6803C6.86781 71.0283 6.84577 73.8452 8.19702 76.2152C9.54828 78.5852 11.9836 80 14.7119 80H65.288C68.0163 80 70.4516 78.5852 71.8028 76.2152C73.1542 73.8452 73.1324 71.0284 71.7419 68.6803Z" fill="#D9FAFF"/>
<path d="M67.4402 71.2266L60.4188 59.3632C60.1941 58.9829 59.7852 58.7498 59.3433 58.7498H20.6567C20.2148 58.7498 19.8059 58.9829 19.5812 59.3632L12.5609 71.2266C12.0909 72.0201 12.0825 72.9351 12.5402 73.7394C12.9992 74.5402 13.7901 74.9997 14.7117 74.9997H65.2878C66.2094 74.9997 67.0005 74.5402 67.4606 73.7369C67.9175 72.9357 67.9102 72.0207 67.4402 71.2266Z" fill="#00E68C"/>
<path d="M40 58.75H20.6567C20.2148 58.75 19.8059 58.9831 19.5812 59.3634L12.5609 71.2269C12.0909 72.0203 12.0825 72.9353 12.5402 73.7397C12.9992 74.5405 13.7901 75 14.7117 75H40V58.75Z" fill="#00E68C"/>
<path d="M43.75 41.25H36.25C35.5591 41.25 35 40.6903 35 40C35 39.3097 35.5591 38.75 36.25 38.75H43.75C44.4409 38.75 45 39.3097 45 40C45 40.6903 44.4409 41.25 43.75 41.25Z" fill="#44BEF1"/>
<path d="M43.75 47.5H36.25C35.5591 47.5 35 46.9403 35 46.25C35 45.5597 35.5591 45 36.25 45H43.75C44.4409 45 45 45.5597 45 46.25C45 46.9403 44.4409 47.5 43.75 47.5Z" fill="#44BEF1"/>
<path d="M43.75 53.75H36.25C35.5591 53.75 35 53.1903 35 52.5C35 51.8097 35.5591 51.25 36.25 51.25H43.75C44.4409 51.25 45 51.8097 45 52.5C45 53.1903 44.4409 53.75 43.75 53.75Z" fill="#44BEF1"/>
<path d="M45 70C46.3807 70 47.5 68.8807 47.5 67.5C47.5 66.1193 46.3807 65 45 65C43.6193 65 42.5 66.1193 42.5 67.5C42.5 68.8807 43.6193 70 45 70Z" fill="white"/>
<path d="M31.25 66.25C32.6307 66.25 33.75 65.1307 33.75 63.75C33.75 62.3693 32.6307 61.25 31.25 61.25C29.8693 61.25 28.75 62.3693 28.75 63.75C28.75 65.1307 29.8693 66.25 31.25 66.25Z" fill="white"/>
<path d="M53.75 66.25C54.4404 66.25 55 65.6904 55 65C55 64.3096 54.4404 63.75 53.75 63.75C53.0596 63.75 52.5 64.3096 52.5 65C52.5 65.6904 53.0596 66.25 53.75 66.25Z" fill="white"/>
<path d="M35 70C35.6904 70 36.25 69.4404 36.25 68.75C36.25 68.0596 35.6904 67.5 35 67.5C34.3096 67.5 33.75 68.0596 33.75 68.75C33.75 69.4404 34.3096 70 35 70Z" fill="white"/>
<path d="M23.75 67.5C24.4404 67.5 25 66.9404 25 66.25C25 65.5596 24.4404 65 23.75 65C23.0596 65 22.5 65.5596 22.5 66.25C22.5 66.9404 23.0596 67.5 23.75 67.5Z" fill="white"/>
<path d="M47.5 0H32.5C31.1192 0 30 1.11922 30 2.5C30 3.88078 31.1192 5 32.5 5H47.5C48.8808 5 50 3.88078 50 2.5C50 1.11922 48.8806 0 47.5 0Z" fill="#44BEF1"/>
</svg>
