<svg width="612" height="385" fill="none" xmlns="http://www.w3.org/2000/svg"><path fill-rule="evenodd" clip-rule="evenodd" d="M135.354 336.322l-3.8-65.509c-18.413 14.778-31.742 22.166-39.988 22.166-15.306 0-61.906-14.411-81.007-46.371l4.226-23.44c18.012 10.278 44.753 25.307 58.935 20.096 14.18-5.21 45.392-80.318 124.213-80.318 78.82 0 124.014 91.023 128.896 113.436 3.571 16.399-13.121 35.172-50.076 56.322l-17.202-15.52c14.839-14.255 20.573-27.855 17.202-40.802-3.37-12.946-10.536-23.985-21.497-33.118l-7.397 93.058c-13.738 10.666-32.489 16-56.252 16-23.764 0-42.515-5.334-56.253-16z" fill="#59AFFF"/><path fill-rule="evenodd" clip-rule="evenodd" d="M134.49 321.434l15.444-11.363a9.998 9.998 0 0 1 11.853 0l34.841 25.638 34.843-25.638a10 10 0 0 1 11.854 0l6.255 4.603-1.721 21.647c-.423.329-.852.653-1.285.972l-9.176-6.752-28.099 20.676c-5.552.736-11.449 1.104-17.692 1.104-2.15 0-4.259-.043-6.327-.131l-29.42-21.649-13.933 10.252a63.795 63.795 0 0 1-6.573-4.472l-.864-14.887z" fill="#48A5FB"/><path fill-rule="evenodd" clip-rule="evenodd" d="M133.09 297.295l-1.381-23.814 18.225-13.41a9.998 9.998 0 0 1 11.853 0l34.841 25.638 34.843-25.638a10 10 0 0 1 11.854 0l10.01 7.366-1.865 23.46-14.072-10.356-34.843 25.638a9.998 9.998 0 0 1-11.854 0l-34.841-25.638-22.77 16.754zm-19.989-13.049c-9.181 5.822-16.36 8.733-21.535 8.733l-.346-.002-16.901-12.436-8.965 6.597c-6.675-2.397-13.833-5.549-20.846-9.491l23.884-17.576a9.999 9.999 0 0 1 11.853 0l32.856 24.175zM320.157 258.2c3.542 7.702 5.78 14.087 6.672 18.182.693 3.182.623 6.453-.21 9.814l-7.686-5.655-34.842 25.638a9.996 9.996 0 0 1-11.853 0l-1.94-1.427c4.525-6.626 6.972-13.102 7.342-19.429l.525.386 34.841-25.638a9.992 9.992 0 0 1 7.151-1.871z" fill="#48A5FB"/><path fill-rule="evenodd" clip-rule="evenodd" d="M35.405 234.345c7.453 3.681 15.084 6.909 22.003 8.641l-17.93 13.194c-4.448 3.273-10.708 2.32-13.981-2.128-3.274-4.448-2.321-10.708 2.127-13.981l7.781-5.726zm46.463 1.751c3.488-4.066 7.617-9.51 12.543-15.602l20.679 15.216 34.844-25.639a10 10 0 0 1 11.853 0l34.841 25.639 34.843-25.639a10.001 10.001 0 0 1 11.854 0l34.84 25.638 19.813-14.58a213.117 213.117 0 0 1 11.209 16.584l-25.096 18.467a9.998 9.998 0 0 1-11.853-.001l-14.027-10.321a75.421 75.421 0 0 0-2.955-2.594l-.032.396-17.826-13.119-34.843 25.639a10 10 0 0 1-11.854-.001l-34.841-25.638-34.844 25.639a10 10 0 0 1-11.853 0l-27.295-20.084z" fill="#48A5FB"/><path fill-rule="evenodd" clip-rule="evenodd" d="M107.728 205.124c14.947-15.833 35.084-32.053 62.48-38.857l26.42 19.442 26.567-19.548c24.906 6.445 45.605 21.84 61.809 39.347l-.913.671a9.996 9.996 0 0 1-11.853 0l-34.84-25.638-34.843 25.638a9.998 9.998 0 0 1-11.854 0l-34.841-25.638-34.844 25.638a9.998 9.998 0 0 1-11.853.001l-1.435-1.056z" fill="#48A5FB"/><path fill-rule="evenodd" clip-rule="evenodd" d="M218.944 106.833v60.399c0 12.766-10.348 23.114-23.114 23.114-.822 0-1.643-.049-2.459-.148-11.234-1.358-19.239-11.565-17.881-22.799l4.93-46.402 38.524-14.164z" fill="#FFC7C2"/><path fill-rule="evenodd" clip-rule="evenodd" d="M219.577 126.326c-8.405 18.733-23.352 31.391-43.577 36.032.024-.465.065-.934.122-1.404l4.931-40.79L219.577 106v20.326z" fill="#1E1E1E"/><path fill-rule="evenodd" clip-rule="evenodd" d="M156.141 156.617c-29.646-4.712-33.544-49.765-33.544-89.418 0-39.653 33.496-39.717 63.143-35.005 29.647 4.712 53.838 37.417 48.636 70.373-5.201 32.957-48.588 58.762-78.235 54.05z" fill="#FFC7C2"/><path d="M258.074 383.368c-43.686.688-87.817 1.162-132.341 1.415a744.834 744.834 0 0 1 9.621-48.461h112.505c3.836 16.817 7.24 32.5 10.215 47.046z" fill="#1E1E1E"/><path fill-rule="evenodd" clip-rule="evenodd" d="M102.522 49.696C94.304-3.383 185.609-13.792 246.106 21.43c25.112 14.621 4.739 119.336-5.589 124.941-17.412 9.448-25.252.992-23.52-25.371 13.387-11.725 18.409-20.169 15.065-25.33-5.016-7.741-16.731 2.472-19.933-.773-3.202-3.245 9.009-19.745-11.517-26.413-20.526-6.668-89.872 34.29-98.09-18.79z" fill="#1E1E1E"/><path fill-rule="evenodd" clip-rule="evenodd" d="M276.753 332.703c-8.514 25.787-23.353 34.428-44.516 25.921-21.164-8.507-12.059-22.32 27.314-41.44l17.202 15.519z" fill="#FFC7C2"/><path fill-rule="evenodd" clip-rule="evenodd" d="M459.176 140.249c16.162 37.581 12.587 73.221-55.591 73.221-123.486 0-107.695-66.271-95.566-115.141-21.059-14.923-22.739-51.443-2.169-66.261 24.096-17.359 56.043-17.359 82.041-3.845 11.212-3.699 50.816-4.336 74.201 42.794 14.761 29.749 12.229 57.688-2.916 69.232z" fill="#1E1E1E"/><path fill-rule="evenodd" clip-rule="evenodd" d="M565.597 303.855l-2 18.696c24.541 6.467 40.05 1.741 46.524-14.177 6.475-15.917-8.366-17.424-44.524-4.519z" fill="#FFC7C2"/><path d="M436.69 379.307c-43.046 1.285-86.626 2.36-130.685 3.218 7.43-18.699 16.451-40.416 27.065-65.15-6.627-28.078-9.94-49.759-9.94-65.045 0-22.929 6.116-55.33 55.461-55.33 41.533 0 55.734 27.791 42.602 83.373l-7.3 37.002c8.844 23.033 16.443 43.677 22.797 61.932z" fill="#57D5F3"/><path d="M344.256 381.723c-17.173.386-34.422.738-51.744 1.057l28.339-107.404c-15.753 10.586-35.512 15.88-59.276 15.88-23.765 0-55.307-11.271-94.628-33.811l-2.83-19.344c45.455 5.166 77.941 5.605 97.458 1.315 29.274-6.434 54.8-43.608 116.425-43.608-19.476 0-57.149 19.94-44.402 112.365 2.538 18.402 14.293 54.46 10.658 73.55zM447.971 378.966c-25.755.792-51.703 1.509-77.834 2.15C371.642 309.01 433 195.808 378 195.808c53.662 0 83.528 46.011 111.802 72.398 18.849 17.592 44.114 29.475 75.795 35.649l-2 18.696c-41.46 2.082-71.741-.652-90.841-8.204-19.101-7.551-36.111-18.845-51.03-33.881 11.677 44.948 20.426 77.781 26.245 98.5z" fill="#F2F5F9"/><path fill-rule="evenodd" clip-rule="evenodd" d="M365.295 153H395v43.333c0 11.966-9.31 21.667-20.793 21.667-9.503 0-17.207-8.027-17.207-17.929 0-1.126.102-2.249.304-3.355L365.295 153z" fill="#FFC7C2"/><path fill-rule="evenodd" clip-rule="evenodd" d="M395 170.361c-8.995 11.208-21.553 19.935-37.315 24.271l7.61-41.632H395v17.361z" fill="#1E1E1E"/><path fill-rule="evenodd" clip-rule="evenodd" d="M413.733 137.393c6.498-11.047 22.267-13.836 22.267-.223 0 12.173-14.283 20.428-21.257 17.08-9.932 14.89-25.528 26.334-46.082 30.59-38.745 8.024-46.847-30.469-46.911-67.14-.008-4.614.062-9.129.254-13.5 31.496 6.642 51.085-4.801 58.007-5.136 4.536 13.43 13.995 27.668 33.722 38.329zM164.117 238.101l2.83 19.344c-28.536 12.227-47.421 3.008-56.655-27.657-9.233-30.664 8.709-27.893 53.825 8.313z" fill="#FFC7C2"/><path fill-rule="evenodd" clip-rule="evenodd" d="M12.415 160.935l108.723 4.127a4 4 0 0 1 3.811 3.454l19.337 140.986a4 4 0 0 1-1.547 3.731l-4.943 3.746-103.706-7.37a4 4 0 0 1-3.658-3.312L6.423 166.768l2.439-3.941a4 4 0 0 1 3.553-1.892z" fill="#606774"/><path fill-rule="evenodd" clip-rule="evenodd" d="M9.866 165.028l106.283 4.035a3.998 3.998 0 0 1 3.809 3.44l19.745 140.491a4 4 0 0 1-4.113 4.554l-106.283-4.034a4 4 0 0 1-3.81-3.441L5.754 169.582a4 4 0 0 1 4.113-4.554z" fill="#404650"/><path d="M62.572 252.66c4.654 3.905 11.304 3.641 14.855-.589 3.55-4.231 2.655-10.827-2-14.732-4.653-3.905-11.303-3.641-14.854.59-3.55 4.231-2.655 10.826 2 14.731z" fill="#606774"/><path fill-rule="evenodd" clip-rule="evenodd" d="M29.958 225.361c4.534 21.758-8.961 66.681-25.713 27.313-16.752-39.368 21.18-49.071 25.713-27.313z" fill="#FFC7C2"/></svg>