<svg width="80" height="80" fill="none" xmlns="http://www.w3.org/2000/svg"><g clip-path="url(#clip0)"><path d="M12.203 0v5.424h2.712a2.711 2.711 0 1 0 0-5.424h-2.712zM28.474 2.712a2.711 2.711 0 0 0 2.712 2.712h2.712V0h-2.712a2.711 2.711 0 0 0-2.712 2.712z" fill="#FA4138"/><path d="M66.44 24.407v36.61a4.068 4.068 0 1 1-8.135 0v-7.458a7.457 7.457 0 0 0-7.458-7.457 7.457 7.457 0 0 0-7.457 7.457v14.238a9.492 9.492 0 0 1-18.983 0V52.812c12.17-.721 21.674-10.79 21.694-22.981V10.848a9.502 9.502 0 0 0-9.491-9.492h-2.712v2.712h2.712a6.787 6.787 0 0 1 6.78 6.78V29.83c0 11.232-9.107 20.339-20.34 20.339-11.232 0-20.338-9.107-20.338-20.34V10.849a6.787 6.787 0 0 1 6.78-6.78h2.711V1.356H9.492A9.502 9.502 0 0 0 0 10.848V29.83c.02 12.19 9.525 22.26 21.695 22.981v14.985c0 6.74 5.463 12.203 12.203 12.203 6.74 0 12.204-5.463 12.204-12.203V53.559a4.746 4.746 0 1 1 9.491 0v7.458a6.78 6.78 0 0 0 13.56 0v-36.61H66.44z" fill="#4DAAF5"/><path d="M67.797 0C74.537 0 80 5.463 80 12.203c0 6.74-5.463 12.204-12.203 12.204-6.74 0-12.204-5.463-12.204-12.204C55.593 5.463 61.056 0 67.797 0z" fill="#FEC007"/><path d="M67.797 8.136a4.068 4.068 0 1 1 0 8.135 4.068 4.068 0 0 1 0-8.135z" fill="#3F51B4"/></g><defs><clipPath id="clip0"><path fill="#fff" d="M0 0h80v80H0z"/></clipPath></defs></svg>