<svg width="80" height="80" viewBox="0 0 80 80" fill="none" xmlns="http://www.w3.org/2000/svg">
<path d="M60 7.61475C48.9544 7.61475 40 16.5691 40 27.6147C40 16.5691 31.0456 7.61475 20 7.61475C8.95437 7.61475 0 16.5691 0 27.6147C0 49.0872 29.3825 67.0961 37.782 71.8055C39.1606 72.5785 40.8394 72.5785 42.218 71.8055C50.6175 67.0963 80 49.0872 80 27.6147C80 16.5691 71.0456 7.61475 60 7.61475Z" fill="#FF8989"/>
<path d="M37.782 71.8055C39.1606 72.5784 40.8394 72.5784 42.218 71.8055C48.4106 68.3333 66.0076 57.6311 74.8273 43.6423H74.8244C74.9117 43.5038 74.9997 43.3652 75.0855 43.2258C75.0858 43.2253 75.0861 43.2248 75.0864 43.2241H57.2586C55.782 43.2241 54.3992 43.7884 53.3608 44.7767C53.3533 44.7709 53.3462 44.7647 53.3387 44.7589L45.3953 36.8155C44.9556 36.2444 44.2698 35.9134 43.5112 35.9439C42.5394 35.9831 41.7239 36.6081 41.4337 37.5363L40.5019 40.5156L31.8365 31.8742C31.4294 31.3386 30.7955 31.0056 30.0789 30.9906C29.027 30.9666 28.1405 31.6266 27.849 32.6278L25.4081 41.0158C25.0297 42.3161 23.8197 43.2242 22.4653 43.2242H4.91342C4.91373 43.2247 4.91405 43.2252 4.91436 43.2259C5.30936 43.8681 5.72327 44.5033 6.15358 45.1314C6.17373 45.1608 6.19373 45.1903 6.21389 45.2194C6.35327 45.4217 6.49389 45.6234 6.63655 45.8242H6.76248L22.5895 61.7656C28.8183 66.5727 34.7069 70.0814 37.782 71.8055Z" fill="url(#paint0_linear)"/>
<path d="M75.0865 43.2242H57.2586C55.3075 43.2242 53.5187 44.2081 52.474 45.8562L50.4336 49.0753L45.7105 37.365C45.3465 36.463 44.4881 35.905 43.5114 35.9444C42.5395 35.9836 41.724 36.6086 41.4339 37.5367L36.9486 51.8764L32.2378 32.72C31.9889 31.7075 31.1211 31.0125 30.0787 30.9906C29.0269 30.9666 28.1403 31.6266 27.8489 32.6278L25.408 41.0158C25.0295 42.3161 23.8195 43.2242 22.4651 43.2242H4.91342C5.45436 44.1039 6.03014 44.9709 6.63655 45.8242H22.4651C24.9683 45.8242 27.2048 44.1458 27.9045 41.7422L30.0045 34.5256L34.7037 53.6359C34.9501 54.6381 35.8086 55.333 36.8398 55.3652C36.8647 55.3658 36.8892 55.3661 36.9139 55.3661C37.9142 55.3661 38.7789 54.7333 39.0795 53.7719L43.6417 39.1866L48.2611 50.6391C48.5814 51.4331 49.3101 51.9745 50.1626 52.0522C51.015 52.1305 51.8297 51.7287 52.2883 51.0056L54.6703 47.2478C55.2353 46.3561 56.2031 45.8237 57.2587 45.8237H73.3636C73.9698 44.9709 74.5454 44.1039 75.0865 43.2242Z" fill="white"/>
<defs>
<linearGradient id="paint0_linear" x1="54.8254" y1="58.4855" x2="11.6823" y2="15.3425" gradientUnits="userSpaceOnUse">
<stop offset="0.0001" stop-color="#D63305" stop-opacity="0"/>
<stop offset="1" stop-color="#B72401"/>
</linearGradient>
</defs>
</svg>
