<?xml version="1.0" encoding="UTF-8" ?>
<!DOCTYPE svg PUBLIC "-//W3C//DTD SVG 1.1//EN" "http://www.w3.org/Graphics/SVG/1.1/DTD/svg11.dtd">
<svg width="78pt" height="80pt" viewBox="0 0 78 80" version="1.1" xmlns="http://www.w3.org/2000/svg">
<g id="#ffffffff">
</g>
<g id="#3f7af1ff">
<path fill="#3f7af1" opacity="1.00" d=" M 36.22 0.00 L 41.84 0.00 C 51.50 5.02 44.39 13.59 42.26 20.61 C 48.98 19.16 54.11 14.01 60.68 12.39 C 66.48 17.39 71.12 23.77 78.00 27.53 L 78.00 29.21 C 67.72 36.86 53.46 32.45 42.18 29.31 C 42.40 34.62 42.27 39.94 42.11 45.25 C 40.09 44.44 38.06 43.65 36.03 42.85 C 35.87 38.33 35.77 33.81 35.79 29.29 C 24.55 32.46 10.16 37.11 0.00 29.21 L 0.00 27.50 C 6.95 23.82 11.57 17.39 17.40 12.42 C 24.20 13.61 29.27 19.71 36.45 20.22 C 33.08 13.77 27.17 4.86 36.22 0.00 Z" />
<path fill="#3f7af1" opacity="1.00" d=" M 25.22 49.77 C 19.11 46.14 21.90 35.86 28.83 35.31 C 33.44 36.90 29.77 41.70 28.24 44.34 C 37.01 51.19 58.50 51.56 55.31 66.28 C 51.53 74.58 42.61 67.94 49.88 62.06 C 41.96 57.35 33.15 54.40 25.22 49.77 Z" />
<path fill="#3f7af1" opacity="1.00" d=" M 49.98 43.14 C 47.02 41.29 44.93 35.55 50.05 35.30 C 57.07 36.92 58.09 46.54 52.36 50.44 C 49.98 49.22 47.59 48.03 45.20 46.82 C 46.77 45.56 48.35 44.33 49.98 43.14 Z" />
<path fill="#3f7af1" opacity="1.00" d=" M 28.13 70.91 C 16.82 67.76 23.40 49.23 33.05 59.29 C 31.46 60.09 29.86 60.88 28.27 61.66 C 30.10 64.68 31.68 68.42 28.13 70.91 Z" />
<path fill="#3f7af1" opacity="1.00" d=" M 35.90 60.79 C 37.99 61.52 40.08 62.25 42.17 62.98 C 42.35 68.39 42.97 73.92 41.27 79.16 C 39.77 79.14 38.26 79.14 36.75 79.17 C 34.92 73.20 35.75 66.92 35.90 60.79 Z" />
</g>
</svg>
