<svg width="80" height="80" viewBox="0 0 80 80" fill="none" xmlns="http://www.w3.org/2000/svg">
<g clip-path="url(#clip0)">
<path d="M65.7242 0.908943C64.6966 -0.191369 63.3155 -0.300432 62.1209 0.623943C60.1822 2.12363 54.2828 6.68676 45.1538 3.72097C37.7853 1.32691 32.0245 0.810506 27.5417 2.14129C23.2913 3.40347 20.2258 6.38566 18.425 11.0094C13.8941 14.0732 11.8433 18.971 12.4909 25.2013C12.9955 30.056 15.0295 34.7246 16.6178 37.2472C16.9628 37.795 17.6863 37.9591 18.2339 37.6146C18.5873 37.3921 18.78 37.0118 18.7803 36.6228H56.525C56.5253 37.0118 56.718 37.3921 57.0714 37.6146C57.2653 37.7368 57.4813 37.7949 57.6947 37.7949C58.0839 37.7949 58.4647 37.601 58.6873 37.2472C60.378 34.5619 62.743 28.0611 62.8509 21.8028C66.3606 17.6491 67.29 12.6968 67.5302 10.0729C67.897 6.07285 67.1878 2.47597 65.7242 0.908943Z" fill="#3D5868"/>
<path d="M65.7242 0.908943C64.6966 -0.191369 63.3155 -0.300432 62.1209 0.623943C61.8253 0.852537 61.4372 1.15269 60.9598 1.48629C62.117 3.25801 62.6467 6.50441 62.3202 10.0729C62.08 12.6969 61.1505 17.6491 57.6409 21.8028C57.5405 27.6205 55.4898 33.6458 53.8436 36.6228H56.5255C56.5258 37.0118 56.7184 37.3921 57.0719 37.6146C57.2658 37.7368 57.4817 37.7949 57.6952 37.7949C58.0844 37.7949 58.4652 37.601 58.6878 37.2472C60.3784 34.5619 62.7434 28.0611 62.8514 21.8028C66.3611 17.6491 67.2905 12.6968 67.5306 10.0729C67.897 6.07285 67.1878 2.47597 65.7242 0.908943Z" fill="#2A434F"/>
<path d="M46.348 55.6169H29.8084C22.6695 55.6169 16.8617 61.4249 16.8617 68.5638V78.8282C16.8617 79.4754 17.3862 80.0001 18.0336 80.0001H58.1231C58.7705 80.0001 59.295 79.4754 59.295 78.8282V68.5637C59.2948 61.4248 53.4869 55.6169 46.348 55.6169Z" fill="#F0EEEE"/>
<path d="M46.348 55.6169H42.4028C49.5417 55.6169 55.3495 61.4249 55.3495 68.5638V78.8282C55.3495 79.4754 54.825 80.0001 54.1777 80.0001H58.1228C58.7702 80.0001 59.2947 79.4754 59.2947 78.8282V68.5637C59.2948 61.4248 53.4869 55.6169 46.348 55.6169Z" fill="#D9D4D4"/>
<path d="M44.6555 56.7878H31.5011V79.9999H44.6555V56.7878Z" fill="#49B6F2"/>
<path d="M38.0783 57.9504V63.7057L44.6556 68.2815V56.7883L38.0783 57.9504Z" fill="#68C8FC"/>
<path d="M31.5009 68.2815L38.0783 63.7057V57.9504L31.5009 56.7883V68.2815Z" fill="#68C8FC"/>
<path d="M51.4694 69.2583C50.822 69.2583 50.2975 68.7336 50.2975 68.0864V62.4353C50.2975 55.9092 44.9883 50.5999 38.4622 50.5999C31.9361 50.5999 26.6267 55.9091 26.6267 62.4353V67.302C26.6267 67.9492 26.1022 68.4739 25.4548 68.4739C24.8075 68.4739 24.283 67.9492 24.283 67.302V62.4353C24.283 54.6169 30.6436 48.2561 38.462 48.2561C46.2805 48.2561 52.6412 54.6169 52.6412 62.4353V68.0864C52.6412 68.7336 52.1166 69.2583 51.4694 69.2583Z" fill="#19303F"/>
<path d="M31.5009 41.8333V55.9998C31.5009 59.6323 34.4458 62.5771 38.0783 62.5771C41.7109 62.5771 44.6556 59.6323 44.6556 55.9998V41.8333H31.5009Z" fill="#F5BE96"/>
<path d="M17.7411 34.9993H25.4548V43.8444H17.7411C15.2986 43.8444 13.3186 41.8644 13.3186 39.4219C13.3186 36.9794 15.2984 34.9993 17.7411 34.9993Z" fill="#F5BE96"/>
<path d="M58.4155 34.9993H50.7017V43.8444H58.4155C60.858 43.8444 62.838 41.8644 62.838 39.4219C62.838 36.9794 60.858 34.9993 58.4155 34.9993Z" fill="#F5BE96"/>
<path d="M55.595 25.9602V35.8547C55.595 45.5366 47.8205 53.529 38.1387 53.5616C28.4361 53.5944 20.5614 45.7383 20.5614 36.0449V29.2013C20.5614 29.0626 20.6444 28.9388 20.7706 28.8812C25.0092 26.9454 26.4236 21.9227 26.7972 18.3265C26.8769 17.5508 26.9081 16.8418 26.9092 16.2443C26.9098 15.9218 27.3077 15.7721 27.5223 16.0126C28.0161 16.5657 28.7836 17.3838 29.7878 18.3263C34.4175 22.6755 44.0787 29.6835 55.1255 25.6299C55.3534 25.5463 55.595 25.7172 55.595 25.9602Z" fill="#FFD4B4"/>
<path d="M38.0783 45.0765C35.97 45.0765 33.9937 44.0404 32.792 42.3047C32.4236 41.7727 32.5562 41.0427 33.0883 40.6741C33.62 40.3057 34.3505 40.4383 34.7189 40.9704C35.4831 42.074 36.7389 42.7327 38.0784 42.7327C39.418 42.7327 40.6737 42.074 41.438 40.9704C41.8064 40.4383 42.5362 40.3057 43.0684 40.6741C43.6005 41.0426 43.7333 41.7726 43.3648 42.3047C42.1627 44.0404 40.1866 45.0765 38.0783 45.0765Z" fill="#19303F"/>
<path d="M46.5661 36.4014C45.9188 36.4014 45.3942 35.8767 45.3942 35.2295V34.917C45.3942 34.2698 45.9188 33.7451 46.5661 33.7451C47.2134 33.7451 47.738 34.2698 47.738 34.917V35.2295C47.738 35.8767 47.2134 36.4014 46.5661 36.4014Z" fill="#19303F"/>
<path d="M29.5905 36.4014C28.9431 36.4014 28.4186 35.8767 28.4186 35.2295V34.917C28.4186 34.2698 28.9431 33.7451 29.5905 33.7451C30.2378 33.7451 30.7623 34.2698 30.7623 34.917V35.2295C30.7623 35.8767 30.2377 36.4014 29.5905 36.4014Z" fill="#19303F"/>
<path d="M25.4549 66.1299C23.563 66.1299 22.0238 67.6691 22.0238 69.5608C22.0238 71.4525 23.563 72.9918 25.4549 72.9918C27.3467 72.9918 28.8859 71.4525 28.8859 69.5608C28.8858 67.6691 27.3466 66.1299 25.4549 66.1299Z" fill="#78D6D1"/>
<path d="M38.0783 63.7058L34.5575 66.155C35.4459 67.0799 36.6944 67.6566 38.0783 67.6566C39.4622 67.6566 40.7105 67.08 41.5991 66.155L38.0783 63.7058Z" fill="#304A56"/>
<path d="M38.0783 67.6566C37.567 67.6566 37.0744 67.5774 36.6116 67.4316L34.9923 80.0001H41.1641L39.5448 67.4316C39.082 67.5774 38.5895 67.6566 38.0783 67.6566Z" fill="#3D5868"/>
<path d="M54.5758 76.7258H54.0072C53.3598 76.7258 52.8353 76.2011 52.8353 75.5539C52.8353 75.1274 53.0631 74.7541 53.4039 74.5491V71.1924C53.4039 70.1256 52.5361 69.258 51.4694 69.258C50.4026 69.258 49.5348 70.1258 49.5348 71.1924V74.5491C49.8756 74.7541 50.1034 75.1274 50.1034 75.5539C50.1034 76.2011 49.5789 76.7258 48.9316 76.7258H48.363C47.7156 76.7258 47.1911 76.2011 47.1911 75.5539V71.1925C47.1911 68.8335 49.1103 66.9146 51.4692 66.9146C53.8283 66.9146 55.7473 68.8338 55.7473 71.1925V75.5539C55.7475 76.2011 55.2228 76.7258 54.5758 76.7258Z" fill="#3D5868"/>
</g>
<defs>
<clipPath id="clip0">
<rect width="80" height="80" fill="white"/>
</clipPath>
</defs>
</svg>
