<svg width="715" height="454" fill="none" xmlns="http://www.w3.org/2000/svg"><path d="M379.966 453.472C565 453.472 715 438.762 715 420.617c0-18.145-150-32.854-335.034-32.854S44.933 402.472 44.933 420.617s149.999 32.855 335.033 32.855z" fill="#F2F5F9"/><path fill-rule="evenodd" clip-rule="evenodd" d="M325.514 24.184L567.358 0v421.834H340.217l-16.162-395.97a1.622 1.622 0 0 1 1.459-1.68z" fill="#57D5F3"/><path fill-rule="evenodd" clip-rule="evenodd" d="M357.959 51.752l176.95-19.303v356.936H372.665L356.514 53.443a1.623 1.623 0 0 1 1.445-1.69z" fill="#48A5FB"/><path fill-rule="evenodd" clip-rule="evenodd" d="M374.169 67.962l160.74-19.289v340.712H388.89l-16.148-319.73a1.622 1.622 0 0 1 1.427-1.693z" fill="#FFF1A1"/><path fill-rule="evenodd" clip-rule="evenodd" d="M534.909 129.312V233.71L388.426 380.194l-5.02-99.379 151.503-151.503zM534.36 48.74l.549-.067v46.554L381.768 248.368l-2.262-44.775L534.36 48.739z" fill="#fff"/><path fill-rule="evenodd" clip-rule="evenodd" d="M508.447 334.188l-30.782 1.847 1.27 53.35h-1.622l-1.268-53.253-30.783 1.847 1.224 51.406h-1.622l-1.222-51.309-30.782 1.847 1.178 49.462h-1.623l-1.175-49.365-38.575 2.315v-1.623l38.536-2.312-1.292-54.274-37.244 2.235v-1.623l37.205-2.232-1.311-55.084-35.894 2.153v-1.622l35.855-2.151-1.292-54.275-34.563 2.074v-1.622l34.524-2.072-1.311-55.084-33.213 1.993v-1.623l33.174-1.99-1.536-64.53h1.622l1.535 64.433 30.782-1.847-1.49-62.586h1.622l1.488 62.489 30.782-1.847-1.443-60.642h1.622l1.441 60.544 30.783-1.847-1.398-58.697h1.623l1.395 58.6 30.242-1.814v1.622l-30.203 1.812 1.311 55.085 28.892-1.734v1.623l-28.853 1.731 1.292 54.274 27.561-1.654v1.623l-27.523 1.651 1.312 55.084 26.211-1.572v1.622l-26.172 1.57 1.292 54.275 24.88-1.493v1.622l-24.842 1.491 1.317 55.294h-1.623l-1.314-55.197zm-.038-1.62l-1.293-54.274-30.782 1.847 1.292 54.274 30.783-1.847zm-1.331-55.895l-1.312-55.084-30.782 1.847 1.312 55.084 30.782-1.847zm-1.35-56.704l-1.292-54.274-30.783 1.847 1.292 54.274 30.783-1.847zm-1.331-55.894l-1.312-55.084-30.782 1.847 1.312 55.084 30.782-1.847zm-33.714-53.14l-30.782 1.847 1.311 55.084 30.782-1.847-1.311-55.084zm1.35 56.704l-30.782 1.847 1.292 54.274 30.782-1.847-1.292-54.274zm1.331 55.894l-30.783 1.847 1.312 55.085 30.782-1.847-1.311-55.085zm1.35 56.705l-30.782 1.847 1.292 54.274 30.782-1.847-1.292-54.274zm-31.11 56.218l-1.293-54.274-30.782 1.847 1.292 54.274 30.783-1.847zm-1.331-55.894l-1.312-55.084-30.782 1.846 1.312 55.085 30.782-1.847zm-1.35-56.705l-1.292-54.274-30.783 1.847 1.292 54.274 30.783-1.847zm-1.331-55.894l-1.312-55.084-30.782 1.847 1.312 55.084 30.782-1.847zM640.343 25.531l-8.087 396.303h-64.898V0l71.876 23.959a1.622 1.622 0 0 1 1.109 1.572z" fill="#48A5FB"/><path fill-rule="evenodd" clip-rule="evenodd" d="M542.368 390.958c41.41 14.597 78.423-45.698 100.203-26.791 14.52 12.605 13.379 31.828-3.424 57.667H521.95c-13.994-30.316-7.188-40.608 20.418-30.876z" fill="#142266"/><path fill-rule="evenodd" clip-rule="evenodd" d="M90.361 243.366l316.376-32.449v210.917H106.585L90.361 243.366z" fill="#5F328C"/><path fill-rule="evenodd" clip-rule="evenodd" d="M479.641 244.523l-16.119 177.311h-56.785V210.917l71.947 31.977c.635.282 1.02.937.957 1.629z" fill="#3F1E60"/><mask id="a" maskUnits="userSpaceOnUse" x="124" y="235" width="261" height="163"><path d="M361.308 237.687l21.092-2.433c.896 0 1.622.726 1.622 1.622v158.999c0 .896-.726 1.623-1.622 1.623h-21.092a1.623 1.623 0 0 1-1.622-1.623V239.31c0-.896.726-1.623 1.622-1.623zm-47.05 4.056l21.091-1.622c.896 0 1.623.726 1.623 1.622v154.132c0 .896-.727 1.623-1.623 1.623h-21.091a1.623 1.623 0 0 1-1.623-1.623V243.366c0-.896.727-1.623 1.623-1.623zm-47.051 4.868l21.092-1.623c.896 0 1.622.727 1.622 1.623v149.264c0 .896-.726 1.623-1.622 1.623h-21.092a1.623 1.623 0 0 1-1.623-1.623V248.233c0-.896.727-1.622 1.623-1.622zm-47.051 5.678l21.092-2.433c.896 0 1.622.726 1.622 1.622v144.397c0 .896-.726 1.623-1.622 1.623h-21.092a1.623 1.623 0 0 1-1.622-1.623V253.912c0-.896.726-1.623 1.622-1.623zm-47.051 4.868l21.092-2.434c.896 0 1.623.726 1.623 1.622v139.53c0 .896-.727 1.623-1.623 1.623h-21.092a1.623 1.623 0 0 1-1.622-1.623V258.779c0-.896.726-1.622 1.622-1.622zm-47.05 4.867l21.091-2.434c.896 0 1.623.727 1.623 1.623v134.662c0 .896-.727 1.623-1.623 1.623h-21.091a1.623 1.623 0 0 1-1.623-1.623V263.646c0-.896.727-1.622 1.623-1.622z" fill="#fff"/></mask><g mask="url(#a)"><path d="M361.308 237.687l21.092-2.433c.896 0 1.622.726 1.622 1.622v158.999c0 .896-.726 1.623-1.622 1.623h-21.092a1.623 1.623 0 0 1-1.622-1.623V239.31c0-.896.726-1.623 1.622-1.623zm-47.05 4.056l21.091-1.622c.896 0 1.623.726 1.623 1.622v154.132c0 .896-.727 1.623-1.623 1.623h-21.091a1.623 1.623 0 0 1-1.623-1.623V243.366c0-.896.727-1.623 1.623-1.623zm-47.051 4.868l21.092-1.623c.896 0 1.622.727 1.622 1.623v149.264c0 .896-.726 1.623-1.622 1.623h-21.092a1.623 1.623 0 0 1-1.623-1.623V248.233c0-.896.727-1.622 1.623-1.622zm-47.051 5.678l21.092-2.433c.896 0 1.622.726 1.622 1.622v144.397c0 .896-.726 1.623-1.622 1.623h-21.092a1.623 1.623 0 0 1-1.622-1.623V253.912c0-.896.726-1.623 1.622-1.623zm-47.051 4.868l21.092-2.434c.896 0 1.623.726 1.623 1.622v139.53c0 .896-.727 1.623-1.623 1.623h-21.092a1.623 1.623 0 0 1-1.622-1.623V258.779c0-.896.726-1.622 1.622-1.622zm-47.05 4.867l21.091-2.434c.896 0 1.623.727 1.623 1.623v134.662c0 .896-.727 1.623-1.623 1.623h-21.091a1.623 1.623 0 0 1-1.623-1.623V263.646c0-.896.727-1.622 1.623-1.622z" fill="#FFF1A1"/><path fill-rule="evenodd" clip-rule="evenodd" d="M171.472 406.439l171.775-171.775 71.35-1.369-171.878 171.878-71.247 1.266zM126.083 403.155l163.979-163.98L317 236.33 148.166 405.164l-22.083-2.009z" fill="#fff"/></g><path fill-rule="evenodd" clip-rule="evenodd" d="M137.412 275.003h24.336l-8.112 146.831h-8.112l-8.112-146.831z" fill="#142266"/><path fill-rule="evenodd" clip-rule="evenodd" d="M266.11 248.966c-14.645 39.181-73.792 3.81-128.122 49.014-54.33 45.205-117.005 35.909-117.005-18.947 0-25.557 8.105-121.782 108.897-137.305 100.793-15.524 150.876 68.056 136.23 107.238z" fill="#EF4D4D"/><path d="M144.713 351.258v8.112h-28.944c-32.402 0-58.668-26.266-58.668-58.667v-20.832h8.112v20.832c0 27.921 22.635 50.555 50.556 50.555h28.944z" fill="#142266"/><path fill-rule="evenodd" clip-rule="evenodd" d="M96.04 286.182c-40.203-8.406-75.31 20.454-91.1 0-15.791-20.454 6.442-80.122 64.369-73.623 57.927 6.499 66.933 82.03 26.73 73.623z" fill="#F0194D"/></svg>