<svg width="51" height="30" fill="none" xmlns="http://www.w3.org/2000/svg"><path fill-rule="evenodd" clip-rule="evenodd" d="M35.428 0H8.585c-.883 0-1.619.736-1.619 1.668v7.898L0 14.816l6.966 5.249v7.702c0 .932.736 1.668 1.62 1.668h26.842v-7.506h-2.02a.76.76 0 0 1-.392-.098c-.098-.05-.098-.197-.098-.393v-7.162c0-1.472-.246-2.6-.785-3.336-.54-.736-1.472-1.08-2.748-1.08-.49 0-.98.05-1.57.197a4.358 4.358 0 0 0-1.422.49c.196.54.343 1.08.441 1.668.099.589.099 1.226.099 1.913v7.31c0 .196-.05.344-.148.393a.979.979 0 0 1-.441.098h-2.11a.76.76 0 0 1-.392-.098c-.098-.05-.098-.197-.098-.393V14.08c0-.638-.05-1.227-.147-1.717-.098-.491-.295-.982-.54-1.325-.245-.343-.638-.638-1.128-.834-.49-.196-1.08-.294-1.864-.294h-.442c-.196 0-.393 0-.589.049a2.38 2.38 0 0 0-.294.024 2.382 2.382 0 0 1-.294.025c-.106 0-.197.014-.281.027-.073.011-.142.022-.21.022v11.43c0 .197-.049.344-.098.393-.098.049-.196.098-.392.098h-2.11c-.196 0-.294-.05-.392-.098-.099-.05-.099-.197-.099-.393V9.762c0-.343 0-.637.05-.883.049-.245.147-.49.245-.686.147-.197.294-.344.54-.49.245-.148.539-.246.932-.344.116 0 .263-.031.441-.068l.147-.03c.147-.025.294-.037.442-.05.147-.012.294-.024.441-.049.147 0 .307-.012.466-.024.16-.012.32-.025.466-.025.162 0 .324-.015.47-.028.119-.01.227-.02.315-.02 1.129 0 2.06.097 2.846.343.785.196 1.471.588 2.06 1.03.638-.442 1.374-.736 2.257-.981a10.045 10.045 0 0 1 2.747-.393c1.128 0 2.11.147 2.894.49.785.344 1.423.786 1.963 1.374.337.406.629.881.842 1.41V0z" fill="#00BAFF"/><rect x="8.428" width="42" height="29.45" rx="2" fill="#00BAFF"/><path d="M39.428 11.48a5.671 5.671 0 0 0-5.671-5.672 5.66 5.66 0 0 0-4.83 2.71 5.662 5.662 0 0 0-4.83-2.71 5.67 5.67 0 0 0-5.67 5.671 5.65 5.65 0 0 0 1.947 4.27l8.036 8.037a.732.732 0 0 0 1.035 0l8.036-8.037a5.65 5.65 0 0 0 1.947-4.27z" fill="#fff"/></svg>