<svg width="395" height="30" viewBox="0 0 395 30" fill="none" xmlns="http://www.w3.org/2000/svg">
<path d="M15.5513 8.63415H15.355L13.9323 12.3625L11.5285 18.4457C11.3323 18.9362 11.1361 19.2306 10.9398 19.3778C10.7436 19.5249 10.4493 19.623 9.95868 19.623H8.73224C8.29072 19.623 7.94732 19.5249 7.75109 19.3778C7.55486 19.2306 7.35864 18.8872 7.21147 18.3966L4.80764 12.5588L3.33591 8.87944H3.18874V21.291C3.18874 21.5363 3.13969 21.7325 3.04158 21.7816C2.94346 21.8306 2.79629 21.8797 2.551 21.8797H0.588697C0.392467 21.8797 0.245282 21.8306 0.147167 21.7816C0.0490516 21.7325 0 21.5363 0 21.291V4.21897C0 3.63028 0.0981211 3.23781 0.343409 2.94347C0.539639 2.64912 0.981146 2.50195 1.61889 2.50195H2.74723C3.2378 2.50195 3.5812 2.60007 3.82648 2.74724C4.07177 2.89441 4.26801 3.23782 4.46424 3.72839L7.70205 11.8229L9.37 16.0909H9.46811L11.1361 11.7738L14.3739 3.72839C14.5701 3.23782 14.8154 2.89441 15.0607 2.74724C15.306 2.60007 15.6984 2.50195 16.1399 2.50195H17.1702C17.7588 2.50195 18.1513 2.64913 18.3966 2.89442C18.6419 3.1397 18.74 3.58122 18.74 4.12085V21.2419C18.74 21.4872 18.6909 21.6835 18.5928 21.7325C18.4947 21.7816 18.3475 21.8306 18.1022 21.8306H16.189C15.9928 21.8306 15.8456 21.7816 15.7475 21.7325C15.6494 21.6835 15.6003 21.4872 15.6003 21.2419L15.5513 8.63415Z" fill="black"/>
<path d="M28.5024 9.81145C28.0119 9.81145 27.5704 9.90957 27.1779 10.1058C26.7854 10.302 26.4911 10.5473 26.1967 10.8907C25.9024 11.2341 25.7062 11.5775 25.559 12.019C25.4118 12.4606 25.3137 12.9021 25.2646 13.3436H31.544C31.544 12.853 31.495 12.4115 31.3968 11.97C31.2987 11.5285 31.1516 11.1851 30.9063 10.8417C30.661 10.4983 30.3666 10.253 29.9742 10.1058C29.6308 9.90957 29.1402 9.81145 28.5024 9.81145ZM28.4534 7.11328C30.5629 7.11328 32.0837 7.65292 33.1139 8.73218C34.095 9.81145 34.6346 11.2832 34.6346 13.1964C34.6346 13.687 34.5856 14.0795 34.4875 14.3738C34.3894 14.6681 34.2422 14.9625 34.046 15.1097C33.8497 15.3059 33.6044 15.404 33.3591 15.5021C33.1139 15.6002 32.8195 15.6002 32.4761 15.6002H25.2156C25.2156 16.2871 25.3628 16.9248 25.559 17.4154C25.7552 17.9059 26.0496 18.2984 26.393 18.5928C26.7364 18.8871 27.1288 19.1324 27.5704 19.2305C28.0119 19.3777 28.5025 19.4267 29.0421 19.4267C29.6308 19.4267 30.1704 19.3777 30.7591 19.2305C31.2987 19.0833 31.7893 18.8871 32.2308 18.6909C32.5252 18.5437 32.7214 18.5928 32.8195 18.838L33.5554 20.4079C33.7025 20.7022 33.6044 20.8985 33.3591 21.0456C32.6723 21.4872 31.9365 21.7815 31.1025 21.9287C30.2685 22.0758 29.4836 22.174 28.7477 22.174C26.5401 22.174 24.8722 21.5853 23.6948 20.3588C22.5174 19.1814 21.9778 17.2682 21.9778 14.6682C21.9778 13.4417 22.125 12.3624 22.4684 11.4303C22.8118 10.4983 23.2533 9.66428 23.7929 9.02653C24.3816 8.38878 25.0684 7.84915 25.8533 7.5548C26.6383 7.30952 27.5213 7.11328 28.4534 7.11328Z" fill="black"/>
<path d="M40.2763 14.9133C40.2763 16.5813 40.6197 17.8077 41.2574 18.4945C41.8952 19.1813 42.8273 19.5247 44.0047 19.5247C44.3971 19.5247 44.8386 19.4757 45.3292 19.4266C45.8689 19.3285 46.2613 19.2304 46.5557 19.1323V10.2528C46.016 10.1057 45.5254 10.0076 45.0839 9.95849C44.6915 9.90944 44.299 9.90944 43.9066 9.90944C42.8273 9.90944 41.9443 10.3019 41.2574 11.0868C40.6197 11.8227 40.2763 13.0982 40.2763 14.9133ZM36.9404 14.9133C36.9404 13.8831 37.0876 12.902 37.3328 11.9699C37.5781 11.0378 37.9706 10.2038 38.5102 9.51698C39.0499 8.83017 39.7367 8.24148 40.5706 7.79996C41.4046 7.35845 42.4348 7.16221 43.6122 7.16221C43.9556 7.16221 44.3971 7.16222 44.8877 7.21127C45.3783 7.26033 45.9179 7.35844 46.5066 7.50562V2.30552C46.5066 2.10929 46.5557 1.96211 46.6538 1.91306C46.7519 1.864 46.8991 1.81494 47.0953 1.81494H49.2048C49.401 1.81494 49.4991 1.864 49.5972 1.91306C49.6953 1.96211 49.6953 2.10929 49.6953 2.30552V20.604C49.6953 20.9474 49.4501 21.2417 48.9104 21.438C48.3708 21.6833 47.7821 21.8304 47.0953 21.9285C46.4085 22.0267 45.7217 22.1248 45.0349 22.1738C44.3481 22.2229 43.8575 22.2229 43.5631 22.2229C42.3367 22.2229 41.3065 22.0267 40.4725 21.6833C39.6385 21.3399 38.9517 20.8493 38.4612 20.2115C37.9215 19.5738 37.5781 18.7889 37.3328 17.9058C37.0876 17.0228 36.9404 15.9926 36.9404 14.9133Z" fill="black"/>
<path d="M58.0351 14.8642H63.2843L61.8616 10.2038L60.7333 6.27915H60.5861L59.4578 10.1056L58.0351 14.8642ZM64.1183 17.7096H57.2011L56.0238 21.4379C55.9747 21.5851 55.8766 21.7323 55.7785 21.7813C55.6804 21.8795 55.5332 21.8795 55.2879 21.8795H52.786C52.5897 21.8795 52.4425 21.8304 52.3935 21.6832C52.3444 21.5851 52.3444 21.4379 52.3935 21.2908L58.2804 3.82627C58.3785 3.53193 58.4766 3.3357 58.5747 3.18852C58.6729 3.04135 58.771 2.89418 58.9181 2.79607C59.0653 2.69795 59.2125 2.64889 59.4087 2.59983C59.605 2.55078 59.8012 2.55078 60.0465 2.55078H61.2238C61.7635 2.55078 62.205 2.6489 62.4012 2.79607C62.6465 2.9923 62.8428 3.3357 63.039 3.87533L68.9259 21.3398C68.9749 21.487 68.9749 21.6342 68.9259 21.7323C68.8768 21.8304 68.7787 21.9285 68.5825 21.9285H66.0806C65.8843 21.9285 65.7372 21.8795 65.59 21.8304C65.4919 21.7813 65.3937 21.6832 65.2956 21.487L64.1183 17.7096Z" fill="black"/>
<path d="M81.2884 14.668C81.2884 13.0491 80.994 11.8227 80.3563 11.0378C79.7185 10.2528 78.8846 9.86038 77.8053 9.86038C77.511 9.86038 77.1185 9.90944 76.5789 9.95849C76.0392 10.0076 75.4996 10.1547 74.9109 10.3019V19.1323C75.3524 19.2794 75.7939 19.3776 76.2845 19.4266C76.7751 19.4757 77.1676 19.4757 77.56 19.4757C78.0996 19.4757 78.6393 19.3776 79.0808 19.2304C79.5223 19.0342 79.9148 18.7889 80.2582 18.3964C80.6016 18.0039 80.8469 17.5134 81.0431 16.9247C81.2393 16.2869 81.2884 15.5511 81.2884 14.668ZM84.5752 14.5209C84.5752 15.6492 84.4281 16.6303 84.1828 17.5624C83.9375 18.4945 83.496 19.3285 82.9564 20.0153C82.4167 20.7021 81.6809 21.2417 80.7978 21.6342C79.9148 22.0267 78.8846 22.2229 77.7072 22.2229C76.7751 22.2229 75.843 22.1248 74.8618 22.0267C73.8807 21.8795 72.9977 21.6342 72.1637 21.2417C72.0165 21.1436 71.8693 21.0946 71.8203 20.9964C71.7712 20.8983 71.7222 20.7512 71.7222 20.604V2.30552C71.7222 2.10929 71.7712 1.96211 71.8693 1.91306C71.9674 1.864 72.1146 1.81494 72.3108 1.81494H74.4694C74.6656 1.81494 74.8128 1.864 74.8618 1.91306C74.96 1.96211 74.96 2.10928 74.96 2.35457L75.009 7.7509C75.5487 7.60373 76.0883 7.45656 76.726 7.35844C77.3638 7.26033 77.9034 7.26033 78.394 7.26033C79.4733 7.26033 80.4054 7.45656 81.1903 7.79996C81.9752 8.14337 82.6129 8.683 83.1035 9.32074C83.5941 10.0076 83.9866 10.7925 84.2318 11.6755C84.4771 12.4604 84.5752 13.4906 84.5752 14.5209Z" fill="black"/>
<path d="M96.9868 14.7175C96.9868 14.0307 96.9378 13.442 96.8397 12.8533C96.7415 12.2646 96.5453 11.7249 96.3 11.2834C96.0547 10.8419 95.7113 10.4985 95.3189 10.2042C94.8773 9.95888 94.3377 9.8117 93.7 9.8117C93.1113 9.8117 92.6207 9.95888 92.1792 10.2042C91.7377 10.4495 91.3943 10.7929 91.0999 11.2344C90.8056 11.6759 90.6093 12.1665 90.4622 12.7552C90.315 13.3438 90.2659 13.9816 90.2659 14.6684C90.2659 16.1892 90.5112 17.4156 91.0018 18.2987C91.4924 19.1817 92.3754 19.6232 93.6018 19.6232C94.2396 19.6232 94.7792 19.4761 95.2208 19.2308C95.6623 18.9855 96.0057 18.593 96.251 18.1515C96.4963 17.71 96.6925 17.1703 96.8397 16.6307C96.9378 15.993 96.9868 15.3552 96.9868 14.7175ZM100.225 14.6193C100.225 17.0722 99.685 18.9364 98.5567 20.261C97.4283 21.5855 95.7604 22.2233 93.5528 22.2233C91.3452 22.2233 89.7263 21.5855 88.647 20.31C87.5678 19.0345 87.0281 17.1703 87.0281 14.7175C87.0281 13.491 87.1753 12.4118 87.5187 11.4797C87.8621 10.5476 88.3036 9.76265 88.8923 9.1249C89.481 8.48715 90.1678 7.99658 90.9527 7.65317C91.7377 7.30977 92.6698 7.1626 93.6509 7.1626C95.8094 7.1626 97.4283 7.84941 98.5567 9.17396C99.685 10.4495 100.225 12.2646 100.225 14.6193Z" fill="black"/>
<path d="M109.497 19.4759C109.693 19.4759 109.987 19.4759 110.38 19.4759C110.772 19.4759 111.164 19.4268 111.655 19.3287V7.89829C111.655 7.70206 111.704 7.55489 111.753 7.50583C111.851 7.45677 111.949 7.40771 112.146 7.40771H114.255C114.451 7.40771 114.549 7.45677 114.648 7.50583C114.746 7.55489 114.795 7.70206 114.795 7.89829V19.7212C114.795 20.3589 114.648 20.8985 114.353 21.242C114.059 21.6344 113.617 21.8797 112.98 22.0269C112.734 22.0759 112.489 22.125 112.146 22.125C111.851 22.174 111.508 22.174 111.214 22.2231C110.87 22.2231 110.576 22.2722 110.281 22.2722C109.987 22.2722 109.693 22.2722 109.447 22.2722C108.221 22.2722 107.191 22.125 106.308 21.8797C105.474 21.6344 104.787 21.1929 104.247 20.6533C103.708 20.1136 103.315 19.3778 103.07 18.4457C102.825 17.5626 102.727 16.4343 102.727 15.2079V7.89829C102.727 7.70206 102.776 7.55489 102.825 7.50583C102.923 7.45677 103.021 7.40771 103.217 7.40771H105.327C105.523 7.40771 105.621 7.45677 105.719 7.50583C105.817 7.55489 105.817 7.70206 105.817 7.89829V15.2569C105.817 15.9928 105.866 16.5815 105.964 17.1211C106.062 17.6608 106.21 18.1023 106.504 18.4457C106.749 18.7891 107.142 19.0344 107.583 19.2306C108.123 19.3778 108.712 19.4759 109.497 19.4759Z" fill="black"/>
<path d="M127.206 21.5852C127.206 21.6833 127.108 21.7324 126.961 21.8305C126.323 22.0267 125.735 22.1739 125.097 22.1739C124.459 22.223 124.018 22.223 123.674 22.223C122.202 22.223 121.123 21.8796 120.534 21.2418C119.897 20.6041 119.602 19.6229 119.602 18.2984V9.90952H117.64C117.444 9.90952 117.346 9.86047 117.297 9.76235C117.248 9.66424 117.248 9.56612 117.248 9.41895V8.29062C117.248 8.14345 117.248 7.99628 117.346 7.94722C117.395 7.84911 117.493 7.80005 117.689 7.80005L119.75 7.30947L120.093 4.70942C120.142 4.51319 120.191 4.36601 120.289 4.31696C120.387 4.21884 120.534 4.16978 120.731 4.07167L122.301 3.53204C122.448 3.48298 122.546 3.53204 122.644 3.58109C122.742 3.63015 122.791 3.77732 122.791 3.97356V7.45665H125.686C125.882 7.45665 126.029 7.5057 126.078 7.60381C126.127 7.70193 126.127 7.80005 126.127 7.94722V9.468C126.127 9.61518 126.127 9.76235 126.078 9.8114C126.029 9.90952 125.931 9.90952 125.686 9.90952H122.791V17.9059C122.791 18.4946 122.938 18.8871 123.184 19.1323C123.478 19.3286 123.87 19.4758 124.459 19.4758C124.557 19.4758 124.704 19.4758 124.901 19.4758C125.097 19.4758 125.244 19.4758 125.44 19.4267C125.636 19.4267 125.833 19.3776 126.029 19.3776C126.225 19.3286 126.372 19.3286 126.52 19.3286C126.716 19.2795 126.814 19.2795 126.863 19.3286C126.912 19.3776 126.961 19.4758 126.961 19.5739L127.255 21.3399C127.206 21.389 127.206 21.4871 127.206 21.5852Z" fill="black"/>
<path d="M188.332 0H140.157C139.274 0 138.539 0.735868 138.539 1.66796V9.56623L131.572 14.8154L138.539 20.0646V27.7666C138.539 28.6987 139.274 29.4345 140.157 29.4345H188.381C189.264 29.4345 190 28.6987 190 27.7666V1.6189C189.951 0.735865 189.264 0 188.332 0ZM167.679 21.4382C167.679 21.6344 167.63 21.7816 167.532 21.8306C167.434 21.8797 167.286 21.9287 167.09 21.9287H164.981C164.784 21.9287 164.686 21.8797 164.588 21.8306C164.49 21.7816 164.49 21.6344 164.49 21.4382V14.2758C164.49 12.804 164.245 11.6757 163.705 10.9398C163.165 10.204 162.233 9.86058 160.958 9.86058C160.467 9.86058 159.977 9.90963 159.388 10.0568C158.799 10.1549 158.309 10.3511 157.965 10.5474C158.162 11.087 158.309 11.6266 158.407 12.2153C158.505 12.804 158.505 13.4418 158.505 14.1286V21.4382C158.505 21.6344 158.456 21.7816 158.358 21.8306C158.26 21.8797 158.113 21.9287 157.916 21.9287H155.807C155.611 21.9287 155.513 21.8797 155.414 21.8306C155.316 21.7816 155.316 21.6344 155.316 21.4382V14.0795C155.316 13.4418 155.267 12.8531 155.169 12.3625C155.071 11.8719 154.875 11.3814 154.629 11.038C154.384 10.6946 153.992 10.4002 153.501 10.204C153.011 10.0077 152.422 9.90964 151.637 9.90964C151.539 9.90964 151.392 9.90964 151.195 9.90964C150.999 9.90964 150.803 9.90963 150.607 9.95869C150.411 9.95869 150.214 10.0077 150.018 10.0077C149.822 10.0077 149.675 10.0568 149.527 10.0568V21.4872C149.527 21.6835 149.478 21.8306 149.429 21.8797C149.331 21.9287 149.233 21.9778 149.037 21.9778H146.927C146.731 21.9778 146.633 21.9287 146.535 21.8797C146.437 21.8306 146.437 21.6835 146.437 21.4872V9.76246C146.437 9.41906 146.437 9.12471 146.486 8.87942C146.535 8.63414 146.633 8.38885 146.731 8.19262C146.878 7.99639 147.026 7.84922 147.271 7.70205C147.516 7.55487 147.81 7.45675 148.203 7.35864C148.35 7.35864 148.546 7.30958 148.792 7.26052C149.086 7.21147 149.38 7.21147 149.675 7.16241C149.969 7.16241 150.312 7.11335 150.607 7.11335C150.901 7.11335 151.195 7.0643 151.392 7.0643C152.52 7.0643 153.452 7.16241 154.237 7.4077C155.022 7.60393 155.709 7.99639 156.297 8.43791C156.935 7.99639 157.671 7.70205 158.554 7.45676C159.437 7.21147 160.32 7.0643 161.301 7.0643C162.43 7.0643 163.411 7.21147 164.196 7.55487C164.981 7.89827 165.618 8.33979 166.158 8.92848C166.649 9.51718 167.041 10.253 167.237 11.087C167.483 11.921 167.581 12.8531 167.581 13.8342V21.4382H167.679ZM183.181 14.4229C183.083 14.7173 182.936 14.9626 182.739 15.1588C182.543 15.355 182.298 15.4531 182.053 15.5513C181.807 15.6494 181.513 15.6494 181.17 15.6494H173.909C173.909 16.3362 174.056 16.9739 174.253 17.4645C174.449 17.9551 174.743 18.3475 175.086 18.6419C175.43 18.9362 175.822 19.1815 176.264 19.2796C176.705 19.4268 177.196 19.4759 177.736 19.4759C178.324 19.4759 178.864 19.4268 179.453 19.2796C179.992 19.1325 180.483 18.9362 180.924 18.74C181.219 18.5928 181.415 18.6419 181.513 18.8872L182.249 20.457C182.396 20.7514 182.298 20.9476 182.053 21.0948C181.366 21.5363 180.63 21.8306 179.796 21.9778C178.962 22.125 178.177 22.2231 177.441 22.2231C175.234 22.2231 173.566 21.6344 172.388 20.408C171.211 19.2306 170.671 17.3173 170.671 14.7173C170.671 13.4908 170.818 12.4116 171.162 11.4795C171.505 10.5474 171.947 9.7134 172.486 9.07565C173.075 8.4379 173.762 7.94733 174.547 7.60392C175.332 7.26052 176.215 7.0643 177.147 7.0643C179.256 7.0643 180.777 7.60393 181.807 8.6832C182.838 9.76246 183.328 11.2342 183.328 13.1474C183.328 13.6871 183.279 14.0795 183.181 14.4229Z" fill="#00BAFF"/>
<rect x="140" width="255" height="29.5" rx="2" fill="#00BAFF"/>
<path d="M157.676 10.072V19.424H151.348C151.88 18.584 152.244 17.66 152.692 14.3L153.224 10.072H157.676ZM147.904 19.396L147.092 19.48C146.308 19.564 146.196 20.012 146.196 20.572L146.532 26.004C146.532 26.256 146.644 26.368 146.868 26.368H148.856C149.108 26.368 149.22 26.228 149.248 25.976C149.332 24.66 149.416 23.316 149.5 22H159.412L159.552 25.976C159.58 26.228 159.692 26.368 159.916 26.368H161.96C162.212 26.368 162.324 26.228 162.324 25.976L162.688 20.544C162.688 20.012 162.576 19.592 161.82 19.508L160.952 19.424V8.868C160.952 7.888 160.728 7.3 159.356 7.3H152.328C151.068 7.3 150.536 7.776 150.396 8.812L149.444 15.224C149.164 17.268 148.856 18.444 147.904 19.396ZM165.402 7.748V20.656C165.402 21.552 165.85 22 166.774 22H167.726C168.51 22 168.846 21.832 169.322 21.076L173.382 14.776L175.062 12.088H175.23V21.552C175.23 21.972 175.37 22 175.734 22H177.974C178.338 22 178.478 21.972 178.478 21.552V8.644C178.478 7.664 177.946 7.3 177.078 7.3H176.07C175.174 7.3 174.95 7.524 174.474 8.224C171.366 13.208 170.946 13.908 170.498 14.58L168.762 17.38H168.65V7.748C168.65 7.328 168.538 7.3 168.118 7.3H165.906C165.542 7.3 165.402 7.328 165.402 7.748ZM188.521 19.452C185.637 19.452 184.881 17.352 184.881 14.748C184.881 12.2 185.889 9.876 188.465 9.876C189.557 9.876 190.509 10.156 191.405 10.492C191.853 10.688 191.965 10.604 192.105 10.296L192.805 8.644C193.001 8.28 192.917 8.14 192.581 7.944C191.321 7.272 189.865 6.964 188.325 6.964C184.181 6.964 181.549 10.016 181.549 14.748C181.549 19.76 183.845 22.308 188.017 22.308C189.557 22.308 191.433 22.112 192.973 21.244C193.281 21.076 193.337 20.852 193.141 20.544L192.441 18.92C192.329 18.612 192.217 18.528 191.797 18.724C191.013 19.088 189.725 19.452 188.521 19.452ZM208.854 21.524V8.644C208.854 8 208.546 7.3 207.454 7.3H197.29C196.198 7.3 195.918 8 195.918 8.644V21.524C195.918 21.944 196.086 22 196.45 22H198.634C199.054 22 199.166 21.944 199.166 21.524V10.044H205.578V21.524C205.578 21.944 205.746 22 206.11 22H208.294C208.714 22 208.854 21.944 208.854 21.524ZM224.444 20.404V12.004C224.444 8.728 222.708 6.964 218.816 6.964C217.164 6.964 215.176 7.188 213.608 7.776C213.356 7.86 213.272 8.056 213.356 8.364L213.748 9.96C213.832 10.296 213.972 10.352 214.392 10.24C215.316 9.932 217.024 9.68 218.284 9.68C220.664 9.68 221.168 10.716 221.168 12.144V12.62H218.032C213.552 12.62 211.928 15.028 211.928 17.632C211.928 20.18 213.244 22.308 218.2 22.308C219.992 22.308 222.26 22.084 223.912 21.328C224.276 21.16 224.444 20.852 224.444 20.404ZM221.14 15.112V19.228C220.16 19.62 218.76 19.676 218.228 19.676C216.436 19.676 215.26 19.116 215.26 17.52C215.26 15.28 217.22 15.112 218.452 15.112H221.14ZM231.35 21.44V15.476H237.51V21.44C237.51 21.888 237.706 22 238.126 22H240.17C240.646 22 240.758 21.916 240.758 21.44V7.832C240.758 7.384 240.646 7.3 240.17 7.3H238.126C237.706 7.3 237.51 7.412 237.51 7.832V12.816H231.35V7.832C231.35 7.384 231.182 7.3 230.734 7.3H228.69C228.27 7.3 228.074 7.412 228.074 7.832V21.44C228.074 21.888 228.27 22 228.69 22H230.734C231.182 22 231.35 21.916 231.35 21.44ZM250.81 19.452C247.926 19.452 247.17 17.352 247.17 14.748C247.17 12.2 248.178 9.876 250.754 9.876C251.846 9.876 252.798 10.156 253.694 10.492C254.142 10.688 254.254 10.604 254.394 10.296L255.094 8.644C255.29 8.28 255.206 8.14 254.87 7.944C253.61 7.272 252.154 6.964 250.614 6.964C246.47 6.964 243.838 10.016 243.838 14.748C243.838 19.76 246.134 22.308 250.306 22.308C251.846 22.308 253.722 22.112 255.262 21.244C255.57 21.076 255.626 20.852 255.43 20.544L254.73 18.92C254.618 18.612 254.506 18.528 254.086 18.724C253.302 19.088 252.014 19.452 250.81 19.452ZM264.339 6.964C260.447 6.964 257.647 9.792 257.647 14.72C257.647 19.984 260.111 22.308 264.619 22.308C266.159 22.308 267.923 22.028 269.351 21.16C269.603 21.02 269.687 20.824 269.547 20.516L268.791 18.92C268.679 18.668 268.483 18.612 268.175 18.752C267.307 19.172 266.103 19.508 264.899 19.508C262.743 19.508 261.063 18.528 260.979 15.616H268.427C269.687 15.616 270.667 15.084 270.667 13.152C270.667 9.316 268.623 6.964 264.339 6.964ZM264.395 9.68C266.915 9.68 267.531 11.276 267.531 13.264H261.091C261.175 11.388 262.435 9.68 264.395 9.68ZM276.932 27.208V21.888C278.248 22.196 279.256 22.28 280.264 22.28C284.66 22.28 286.816 18.808 286.816 14.636C286.816 10.352 284.856 6.992 280.012 6.992C278.136 6.992 275.98 7.244 274.104 8.056C273.74 8.252 273.656 8.392 273.656 8.728V27.208C273.656 27.628 273.824 27.684 274.188 27.684H276.4C276.82 27.684 276.932 27.628 276.932 27.208ZM283.428 14.608C283.428 18.248 281.832 19.48 279.676 19.48C278.92 19.48 278.08 19.396 276.932 19.088V10.184C277.604 9.96 278.78 9.792 279.536 9.792C281.944 9.792 283.428 11.052 283.428 14.608ZM289.898 7.748V20.656C289.898 21.552 290.346 22 291.27 22H292.222C293.006 22 293.342 21.832 293.818 21.076L297.878 14.776L299.558 12.088H299.726V21.552C299.726 21.972 299.866 22 300.23 22H302.47C302.834 22 302.974 21.972 302.974 21.552V8.644C302.974 7.664 302.442 7.3 301.574 7.3H300.566C299.67 7.3 299.446 7.524 298.97 8.224C295.862 13.208 295.442 13.908 294.994 14.58L293.258 17.38H293.146V7.748C293.146 7.328 293.034 7.3 292.614 7.3H290.402C290.038 7.3 289.898 7.328 289.898 7.748ZM310.945 9.736C312.793 9.736 313.717 10.268 313.717 11.332C313.717 12.536 312.625 12.984 310.497 13.096C309.797 13.124 309.461 13.404 309.461 13.936V14.58C309.461 15.224 309.825 15.392 310.497 15.392C313.269 15.42 314.249 16.176 314.249 17.38C314.249 18.584 313.325 19.648 310.777 19.648C309.461 19.648 307.809 19.284 306.773 18.864C306.325 18.668 306.213 18.808 306.101 19.06L305.429 20.6C305.317 20.908 305.345 21.076 305.681 21.272C307.081 22 309.377 22.28 311.197 22.28C314.977 22.28 317.469 20.404 317.469 17.576C317.469 15.924 316.433 14.72 314.865 14.244V14.132C316.125 13.46 316.993 12.312 316.993 10.884C316.993 8.308 314.781 6.992 311.505 6.992C309.517 6.992 307.753 7.412 306.381 8.112C306.045 8.252 306.017 8.392 306.213 8.812L306.773 10.268C306.885 10.52 306.997 10.632 307.417 10.436C308.453 10.072 309.909 9.736 310.945 9.736ZM332.342 20.404V12.004C332.342 8.728 330.606 6.964 326.714 6.964C325.062 6.964 323.074 7.188 321.506 7.776C321.254 7.86 321.17 8.056 321.254 8.364L321.646 9.96C321.73 10.296 321.87 10.352 322.29 10.24C323.214 9.932 324.922 9.68 326.182 9.68C328.562 9.68 329.066 10.716 329.066 12.144V12.62H325.93C321.45 12.62 319.826 15.028 319.826 17.632C319.826 20.18 321.142 22.308 326.098 22.308C327.89 22.308 330.158 22.084 331.81 21.328C332.174 21.16 332.342 20.852 332.342 20.404ZM329.038 15.112V19.228C328.058 19.62 326.658 19.676 326.126 19.676C324.334 19.676 323.158 19.116 323.158 17.52C323.158 15.28 325.118 15.112 326.35 15.112H329.038ZM348.684 19.34V7.832C348.684 7.384 348.516 7.3 348.096 7.3H346.024C345.604 7.3 345.408 7.412 345.408 7.832V19.368H339.22V7.832C339.22 7.384 339.164 7.3 338.632 7.3H336.56C336.14 7.3 335.972 7.412 335.972 7.832V20.32C335.972 21.412 336.448 22 337.484 22H347.312L347.48 25.976C347.508 26.228 347.62 26.368 347.844 26.368H349.86C350.112 26.368 350.224 26.228 350.252 25.976L350.56 20.46C350.588 20.012 350.504 19.508 349.692 19.424L348.684 19.34ZM353.199 7.748V20.656C353.199 21.552 353.647 22 354.571 22H355.523C356.307 22 356.643 21.832 357.119 21.076L361.179 14.776L362.859 12.088H363.027V21.552C363.027 21.972 363.167 22 363.531 22H365.771C366.135 22 366.275 21.972 366.275 21.552V8.644C366.275 7.664 365.743 7.3 364.875 7.3H363.867C362.971 7.3 362.747 7.524 362.271 8.224C359.163 13.208 358.743 13.908 358.295 14.58L356.559 17.38H356.447V7.748C356.447 7.328 356.335 7.3 355.915 7.3H353.703C353.339 7.3 353.199 7.328 353.199 7.748ZM378.838 16.232V21.552C378.838 21.916 378.95 22 379.37 22H381.526C381.89 22 382.058 21.916 382.058 21.58V8.476C382.03 7.692 381.442 7.3 380.686 7.3H374.694C371.558 7.3 369.682 9.204 369.682 11.696C369.682 13.376 370.326 14.748 372.202 15.392V15.42C370.886 15.784 370.438 16.624 370.13 17.604L368.87 21.496C368.842 21.524 368.842 21.608 368.842 21.692C368.842 21.888 368.926 22 369.262 22H371.502C371.81 22 372.09 21.944 372.202 21.524L373.266 18.024C373.714 16.54 374.554 16.232 375.982 16.232H378.838ZM372.902 11.864C372.902 11.08 373.35 9.932 375.142 9.932H378.838V13.824H375.282C373.49 13.824 372.902 12.956 372.902 11.864Z" fill="white"/>
</svg>
