<svg width="182" height="30" fill="none" xmlns="http://www.w3.org/2000/svg"><path d="M15.551 8.634h-.196l-1.423 3.729-2.404 6.083c-.196.49-.392.785-.588.932-.196.147-.49.245-.981.245H8.732c-.441 0-.785-.098-.98-.245-.197-.147-.393-.49-.54-.981l-2.404-5.838-1.472-3.68h-.147v12.412c0 .245-.05.442-.147.49a1.056 1.056 0 0 1-.491.099H.589a.98.98 0 0 1-.442-.098C.05 21.732 0 21.536 0 21.29V4.219c0-.589.098-.981.343-1.276.197-.294.638-.441 1.276-.441h1.128c.49 0 .834.098 1.08.245.245.147.441.49.637.981l3.238 8.095L9.37 16.09h.098l1.668-4.317 3.238-8.046c.196-.49.441-.834.687-.98.245-.148.637-.246 1.079-.246h1.03c.589 0 .981.147 1.227.392.245.246.343.687.343 1.227v17.12c0 .246-.05.442-.147.492-.098.049-.245.098-.49.098h-1.914a.979.979 0 0 1-.441-.098c-.099-.05-.148-.246-.148-.491l-.049-12.608zM28.503 9.811c-.491 0-.933.099-1.325.295a3.02 3.02 0 0 0-.981.785c-.295.343-.49.687-.638 1.128a6.42 6.42 0 0 0-.294 1.325h6.279c0-.491-.049-.932-.147-1.374a2.931 2.931 0 0 0-.49-1.128 1.964 1.964 0 0 0-.933-.736c-.343-.196-.834-.295-1.471-.295zm-.05-2.698c2.11 0 3.63.54 4.66 1.62.982 1.078 1.522 2.55 1.522 4.463 0 .491-.05.883-.148 1.178-.098.294-.245.588-.441.736-.196.196-.442.294-.687.392-.245.098-.54.098-.883.098h-7.26c0 .687.147 1.325.343 1.815.196.49.49.883.834 1.178.343.294.736.54 1.177.637.442.148.933.197 1.472.197.589 0 1.128-.05 1.717-.197.54-.147 1.03-.343 1.472-.54.294-.146.49-.097.588.148l.736 1.57c.148.294.05.49-.196.638a6.033 6.033 0 0 1-2.257.883c-.834.147-1.618.245-2.354.245-2.208 0-3.876-.589-5.053-1.815-1.178-1.178-1.717-3.09-1.717-5.69 0-1.227.147-2.307.49-3.239.344-.932.785-1.766 1.325-2.403.589-.638 1.275-1.178 2.06-1.472.785-.245 1.668-.442 2.6-.442zM40.276 14.913c0 1.668.344 2.895.981 3.581.638.687 1.57 1.03 2.748 1.03.392 0 .834-.048 1.324-.097.54-.099.932-.197 1.227-.295v-8.88a9.752 9.752 0 0 0-1.472-.294c-.393-.049-.785-.049-1.178-.049-1.079 0-1.962.393-2.649 1.178-.637.736-.98 2.011-.98 3.826zm-3.336 0c0-1.03.148-2.011.393-2.943.245-.932.638-1.766 1.177-2.453A6.43 6.43 0 0 1 40.57 7.8c.835-.442 1.865-.638 3.042-.638.344 0 .785 0 1.276.05.49.048 1.03.146 1.619.294v-5.2c0-.197.049-.344.147-.393a.98.98 0 0 1 .441-.098h2.11c.196 0 .294.049.392.098.098.05.098.196.098.393v18.298c0 .343-.245.638-.785.834-.54.245-1.128.392-1.815.49-.687.099-1.373.197-2.06.246-.687.049-1.177.049-1.472.049-1.226 0-2.257-.196-3.09-.54-.834-.343-1.521-.834-2.012-1.471-.54-.638-.883-1.423-1.128-2.306a11.33 11.33 0 0 1-.393-2.993zM58.035 14.864h5.25l-1.423-4.66-1.129-3.925h-.147l-1.128 3.827-1.423 4.758zm6.083 2.846h-6.917l-1.177 3.728c-.05.147-.147.294-.245.343-.099.099-.246.099-.491.099h-2.502c-.196 0-.343-.05-.392-.197-.05-.098-.05-.245 0-.392L58.28 3.826c.099-.294.197-.49.295-.637.098-.148.196-.295.343-.393a1.47 1.47 0 0 1 .49-.196c.197-.05.393-.05.639-.05h1.177c.54 0 .981.099 1.177.246.245.196.442.54.638 1.08l5.887 17.464c.049.147.049.294 0 .392-.05.098-.147.197-.344.197h-2.501a1.45 1.45 0 0 1-.491-.099c-.098-.049-.196-.147-.294-.343l-1.178-3.777zM81.288 14.668c0-1.619-.294-2.845-.932-3.63-.637-.785-1.471-1.178-2.55-1.178-.295 0-.688.05-1.227.098-.54.05-1.08.197-1.668.344v8.83c.441.147.883.246 1.373.295.491.049.884.049 1.276.049.54 0 1.08-.098 1.52-.246.442-.196.835-.441 1.178-.834.344-.392.589-.883.785-1.471.196-.638.245-1.374.245-2.257zm3.287-.147c0 1.128-.147 2.11-.392 3.041a6.788 6.788 0 0 1-1.227 2.453c-.54.687-1.275 1.227-2.158 1.62-.883.392-1.913.588-3.09.588-.933 0-1.865-.098-2.846-.196-.981-.148-1.864-.393-2.698-.785-.148-.098-.295-.147-.344-.246a.923.923 0 0 1-.098-.392V2.306c0-.197.05-.344.147-.393a.98.98 0 0 1 .442-.098h2.158c.197 0 .344.049.393.098.098.05.098.196.098.442l.049 5.396c.54-.147 1.08-.294 1.717-.393.638-.098 1.177-.098 1.668-.098 1.08 0 2.011.197 2.796.54a4.89 4.89 0 0 1 1.913 1.52c.491.688.884 1.473 1.129 2.355.245.785.343 1.816.343 2.846zM96.987 14.717c0-.686-.05-1.275-.147-1.864a4.94 4.94 0 0 0-.54-1.57c-.245-.441-.589-.784-.981-1.079-.442-.245-.981-.392-1.619-.392-.589 0-1.08.147-1.52.392-.442.245-.786.589-1.08 1.03-.294.442-.49.932-.638 1.521-.147.589-.196 1.227-.196 1.913 0 1.521.245 2.748.736 3.63.49.884 1.373 1.325 2.6 1.325.638 0 1.177-.147 1.619-.392.441-.246.785-.638 1.03-1.08.245-.441.441-.98.589-1.52.098-.638.147-1.276.147-1.914zm3.238-.098c0 2.453-.54 4.317-1.668 5.642-1.129 1.325-2.797 1.962-5.004 1.962-2.208 0-3.827-.637-4.906-1.913-1.08-1.275-1.619-3.14-1.619-5.592 0-1.227.147-2.306.49-3.238.344-.932.786-1.717 1.374-2.355a6.11 6.11 0 0 1 2.06-1.472c.786-.343 1.718-.49 2.699-.49 2.159 0 3.777.686 4.906 2.011 1.128 1.276 1.668 3.09 1.668 5.445zM109.497 19.476h.883c.392 0 .784-.05 1.275-.147V7.899c0-.197.049-.344.098-.393a.76.76 0 0 1 .393-.098h2.109c.196 0 .294.049.393.098.098.049.147.196.147.392v11.823c0 .638-.147 1.177-.442 1.521-.294.392-.736.638-1.373.785-.246.049-.491.098-.834.098-.295.049-.638.049-.932.098-.344 0-.638.05-.933.05h-.834c-1.226 0-2.256-.148-3.139-.393a4.825 4.825 0 0 1-2.061-1.227c-.539-.54-.932-1.275-1.177-2.207-.245-.883-.343-2.012-.343-3.238v-7.31c0-.196.049-.343.098-.392.098-.05.196-.098.392-.098h2.11c.196 0 .294.049.392.098.098.049.098.196.098.392v7.359c0 .736.049 1.324.147 1.864.098.54.246.981.54 1.325.245.343.638.588 1.079.785.54.147 1.129.245 1.914.245zM127.206 21.585c0 .098-.098.147-.245.245-.638.197-1.226.344-1.864.344-.638.049-1.079.049-1.423.049-1.472 0-2.551-.343-3.14-.981-.637-.638-.932-1.62-.932-2.944V9.91h-1.962c-.196 0-.294-.05-.343-.148-.049-.098-.049-.196-.049-.343V8.291c0-.148 0-.295.098-.344.049-.098.147-.147.343-.147l2.061-.49.343-2.6c.049-.197.098-.344.196-.393.098-.098.245-.147.442-.245l1.57-.54c.147-.049.245 0 .343.05.098.048.147.195.147.392v3.483h2.895c.196 0 .343.049.392.147.049.098.049.196.049.343v1.521c0 .147 0 .294-.049.343-.049.099-.147.099-.392.099h-2.895v7.996c0 .589.147.981.393 1.226.294.197.686.344 1.275.344h.442c.196 0 .343 0 .539-.05.196 0 .393-.048.589-.048.196-.05.343-.05.49-.05.197-.049.295-.049.344 0a.375.375 0 0 1 .098.246l.294 1.766c-.049.049-.049.147-.049.245z" fill="#000"/><path fill-rule="evenodd" clip-rule="evenodd" d="M167 0h-26.843c-.883 0-1.618.736-1.618 1.668v7.898l-6.967 5.25 6.967 5.249v7.702c0 .932.735 1.668 1.618 1.668H167v-7.506h-2.019a.76.76 0 0 1-.393-.098c-.098-.05-.098-.197-.098-.393v-7.162c0-1.472-.245-2.6-.785-3.336-.54-.736-1.472-1.08-2.747-1.08a6.24 6.24 0 0 0-1.57.197 4.363 4.363 0 0 0-1.423.49c.197.54.344 1.08.442 1.668.098.589.098 1.226.098 1.913v7.31c0 .196-.049.344-.147.393a.978.978 0 0 1-.442.098h-2.109c-.196 0-.294-.05-.393-.098-.098-.05-.098-.197-.098-.393V14.08c0-.638-.049-1.227-.147-1.717-.098-.491-.294-.982-.54-1.325-.245-.343-.637-.638-1.128-.834-.49-.196-1.079-.294-1.864-.294h-.442c-.196 0-.392 0-.588.049-.098 0-.196.012-.295.024a2.377 2.377 0 0 1-.294.025c-.105 0-.196.014-.281.027-.073.011-.141.022-.21.022v11.43c0 .197-.049.344-.098.393-.098.049-.196.098-.392.098h-2.11c-.196 0-.294-.05-.392-.098-.098-.05-.098-.197-.098-.393V9.762c0-.343 0-.637.049-.883.049-.245.147-.49.245-.686.147-.197.295-.344.54-.49.245-.148.539-.246.932-.344.116 0 .264-.031.441-.068l.148-.03c.147-.025.294-.037.441-.05.147-.012.294-.024.442-.049.147 0 .306-.012.466-.024.159-.012.319-.025.466-.025.162 0 .324-.015.469-.028.119-.01.227-.02.316-.02 1.128 0 2.06.097 2.845.343.785.196 1.472.588 2.06 1.03.638-.442 1.374-.736 2.257-.981a10.045 10.045 0 0 1 2.747-.393c1.129 0 2.11.147 2.895.49.785.344 1.422.786 1.962 1.374.338.406.629.881.842 1.41V0z" fill="#00BAFF"/><rect x="140" width="42" height="29.45" rx="2" fill="#00BAFF"/><path d="M171 11.48a5.671 5.671 0 0 0-5.671-5.672 5.661 5.661 0 0 0-4.829 2.71 5.663 5.663 0 0 0-4.83-2.71A5.67 5.67 0 0 0 150 11.48a5.65 5.65 0 0 0 1.947 4.27l8.035 8.037a.734.734 0 0 0 1.035 0l8.036-8.037A5.65 5.65 0 0 0 171 11.48z" fill="#fff"/></svg>