<svg width="395" height="30" fill="none" xmlns="http://www.w3.org/2000/svg"><path d="M15.551 8.634h-.196l-1.423 3.729-2.404 6.083c-.196.49-.392.785-.588.932-.196.147-.49.245-.981.245H8.732c-.441 0-.785-.098-.98-.245-.197-.147-.393-.49-.54-.981l-2.404-5.838-1.472-3.68h-.147v12.412c0 .245-.05.442-.147.49a1.056 1.056 0 0 1-.491.099H.589a.98.98 0 0 1-.442-.098C.05 21.732 0 21.536 0 21.29V4.219c0-.589.098-.981.343-1.276.197-.294.638-.441 1.276-.441h1.128c.49 0 .834.098 1.08.245.245.147.441.49.637.981l3.238 8.095L9.37 16.09h.098l1.668-4.317 3.238-8.046c.196-.49.441-.834.687-.98.245-.148.637-.246 1.079-.246h1.03c.589 0 .981.147 1.227.392.245.246.343.687.343 1.227v17.12c0 .246-.05.442-.147.492-.098.049-.245.098-.49.098h-1.914a.979.979 0 0 1-.441-.098c-.099-.05-.148-.246-.148-.491l-.049-12.608zM28.502 9.811c-.49 0-.932.099-1.324.295a3.02 3.02 0 0 0-.981.785c-.295.343-.49.687-.638 1.128a6.428 6.428 0 0 0-.294 1.325h6.279a6.2 6.2 0 0 0-.147-1.374 2.93 2.93 0 0 0-.49-1.128 1.964 1.964 0 0 0-.933-.736c-.343-.196-.834-.295-1.472-.295zm-.049-2.698c2.11 0 3.63.54 4.66 1.62.982 1.078 1.522 2.55 1.522 4.463 0 .491-.05.883-.148 1.178-.098.294-.245.588-.441.736-.196.196-.442.294-.687.392-.245.098-.54.098-.883.098h-7.26c0 .687.147 1.325.343 1.815.196.49.49.883.834 1.178.343.294.736.54 1.177.637.442.148.933.197 1.472.197.589 0 1.128-.05 1.717-.197.54-.147 1.03-.343 1.472-.54.294-.146.49-.097.588.148l.736 1.57c.148.294.05.49-.196.638a6.032 6.032 0 0 1-2.257.883c-.834.147-1.618.245-2.354.245-2.208 0-3.876-.589-5.053-1.815-1.178-1.178-1.717-3.09-1.717-5.69 0-1.227.147-2.307.49-3.239.344-.932.785-1.766 1.325-2.403.589-.638 1.275-1.178 2.06-1.472.785-.245 1.668-.442 2.6-.442zM40.276 14.913c0 1.668.344 2.895.981 3.581.638.687 1.57 1.03 2.748 1.03.392 0 .834-.048 1.324-.097a9.09 9.09 0 0 0 1.227-.295v-8.88a9.756 9.756 0 0 0-1.472-.294c-.393-.049-.785-.049-1.177-.049-1.08 0-1.963.393-2.65 1.178-.637.736-.98 2.011-.98 3.826zm-3.336 0c0-1.03.148-2.011.393-2.943.245-.932.638-1.766 1.177-2.453A6.432 6.432 0 0 1 40.57 7.8c.835-.442 1.865-.638 3.042-.638.344 0 .785 0 1.276.05.49.048 1.03.146 1.619.294v-5.2c0-.197.049-.344.147-.393a.98.98 0 0 1 .441-.098h2.11c.196 0 .294.049.392.098.098.05.098.196.098.393v18.298c0 .343-.245.638-.785.834-.54.245-1.128.392-1.815.49-.687.099-1.373.197-2.06.246-.687.049-1.177.049-1.472.049-1.226 0-2.257-.196-3.09-.54-.834-.343-1.521-.834-2.012-1.471-.54-.638-.883-1.423-1.128-2.306a11.335 11.335 0 0 1-.393-2.993zM58.035 14.864h5.25l-1.423-4.66-1.129-3.925h-.147l-1.128 3.827-1.423 4.758zm6.083 2.846h-6.917l-1.177 3.728c-.05.147-.147.294-.245.343-.099.099-.246.099-.491.099h-2.502c-.196 0-.343-.05-.392-.197-.05-.098-.05-.245 0-.392L58.28 3.826c.099-.294.197-.49.295-.637.098-.148.196-.295.343-.393a1.47 1.47 0 0 1 .49-.196c.197-.05.393-.05.639-.05h1.177c.54 0 .981.099 1.177.246.245.196.442.54.638 1.08l5.887 17.464c.049.147.049.294 0 .392-.05.098-.147.197-.344.197h-2.501a1.45 1.45 0 0 1-.491-.099c-.098-.049-.196-.147-.294-.343l-1.178-3.777zM81.288 14.668c0-1.619-.294-2.845-.932-3.63-.637-.785-1.471-1.178-2.55-1.178-.295 0-.688.05-1.227.098-.54.05-1.08.197-1.668.344v8.83c.441.147.883.246 1.373.295.491.049.884.049 1.276.049.54 0 1.08-.098 1.52-.246.442-.196.835-.441 1.178-.834.344-.392.589-.883.785-1.471.196-.638.245-1.374.245-2.257zm3.287-.147c0 1.128-.147 2.11-.392 3.041a6.788 6.788 0 0 1-1.227 2.453c-.54.687-1.275 1.227-2.158 1.62-.883.392-1.913.588-3.09.588-.933 0-1.865-.098-2.846-.196-.981-.148-1.864-.393-2.698-.785-.148-.098-.295-.147-.344-.246a.923.923 0 0 1-.098-.392V2.306c0-.197.05-.344.147-.393a.98.98 0 0 1 .442-.098h2.158c.197 0 .344.049.393.098.098.05.098.196.098.442l.049 5.396c.54-.147 1.08-.294 1.717-.393.638-.098 1.177-.098 1.668-.098 1.08 0 2.011.197 2.796.54a4.891 4.891 0 0 1 1.913 1.52 7.48 7.48 0 0 1 1.129 2.355c.245.785.343 1.816.343 2.846zM96.987 14.717c0-.686-.05-1.275-.147-1.864a4.94 4.94 0 0 0-.54-1.57c-.245-.441-.589-.784-.981-1.079-.442-.245-.981-.392-1.619-.392-.589 0-1.08.147-1.52.392-.442.245-.786.589-1.08 1.03-.294.442-.49.932-.638 1.521-.147.589-.196 1.227-.196 1.913 0 1.521.245 2.748.736 3.63.49.884 1.373 1.325 2.6 1.325.638 0 1.177-.147 1.619-.392.441-.246.785-.638 1.03-1.08.245-.441.441-.98.589-1.52.098-.638.147-1.276.147-1.914zm3.238-.098c0 2.453-.54 4.317-1.668 5.642-1.129 1.325-2.797 1.962-5.004 1.962-2.208 0-3.827-.637-4.906-1.913-1.08-1.275-1.619-3.14-1.619-5.592 0-1.227.147-2.306.49-3.238.344-.932.786-1.717 1.374-2.355a6.11 6.11 0 0 1 2.06-1.472c.786-.343 1.718-.49 2.699-.49 2.158 0 3.777.686 4.906 2.011 1.128 1.276 1.668 3.09 1.668 5.445zM109.497 19.476h.883c.392 0 .784-.05 1.275-.147V7.899c0-.197.049-.344.098-.393a.76.76 0 0 1 .393-.098h2.109c.196 0 .294.049.393.098.098.049.147.196.147.392v11.823c0 .638-.147 1.177-.442 1.521-.294.392-.736.638-1.373.785-.246.049-.491.098-.834.098-.295.049-.638.049-.932.098-.344 0-.638.05-.933.05h-.834c-1.226 0-2.256-.148-3.139-.393a4.825 4.825 0 0 1-2.061-1.227c-.539-.54-.932-1.275-1.177-2.207-.245-.883-.343-2.012-.343-3.238v-7.31c0-.196.049-.343.098-.392.098-.05.196-.098.392-.098h2.11c.196 0 .294.049.392.098.098.049.098.196.098.392v7.359c0 .736.049 1.324.147 1.864.098.54.246.981.54 1.325.245.343.638.588 1.079.785.54.147 1.129.245 1.914.245zM127.206 21.585c0 .098-.098.147-.245.245-.638.197-1.226.344-1.864.344-.638.049-1.079.049-1.423.049-1.472 0-2.551-.343-3.14-.981-.637-.638-.932-1.62-.932-2.944V9.91h-1.962c-.196 0-.294-.05-.343-.148-.049-.098-.049-.196-.049-.343V8.291c0-.148 0-.295.098-.344.049-.098.147-.147.343-.147l2.061-.49.343-2.6c.049-.197.098-.344.196-.393.098-.098.245-.147.442-.245l1.57-.54c.147-.049.245 0 .343.05.098.048.147.195.147.392v3.483h2.895c.196 0 .343.049.392.147.049.098.049.196.049.343v1.521c0 .147 0 .294-.049.343-.049.099-.147.099-.392.099h-2.895v7.996c0 .589.147.981.393 1.226.294.197.686.344 1.275.344h.442c.196 0 .343 0 .539-.05.196 0 .393-.048.589-.048.196-.05.343-.05.491-.05.196-.049.294-.049.343 0a.375.375 0 0 1 .098.246l.294 1.766c-.049.049-.049.147-.049.245z" fill="#000"/><path d="M188.332 0h-48.175c-.883 0-1.618.736-1.618 1.668v7.898l-6.967 5.25 6.967 5.249v7.702c0 .932.735 1.668 1.618 1.668h48.224c.883 0 1.619-.736 1.619-1.668V1.619C189.951.736 189.264 0 188.332 0zm-20.653 21.438c0 .196-.049.344-.147.393a.982.982 0 0 1-.442.098h-2.109a.76.76 0 0 1-.393-.098c-.098-.05-.098-.197-.098-.393v-7.162c0-1.472-.245-2.6-.785-3.336-.54-.736-1.472-1.08-2.747-1.08a6.24 6.24 0 0 0-1.57.197 4.363 4.363 0 0 0-1.423.49c.197.54.344 1.08.442 1.668.098.589.098 1.227.098 1.914v7.31c0 .195-.049.343-.147.392a.978.978 0 0 1-.442.098h-2.109c-.196 0-.294-.05-.393-.098-.098-.05-.098-.197-.098-.393V14.08c0-.638-.049-1.227-.147-1.717-.098-.491-.294-.982-.54-1.325-.245-.343-.637-.638-1.128-.834-.49-.196-1.079-.294-1.864-.294h-.442c-.196 0-.392 0-.588.049-.196 0-.393.049-.589.049-.196 0-.343.049-.491.049v11.43c0 .197-.049.344-.098.393-.098.049-.196.098-.392.098h-2.11c-.196 0-.294-.05-.392-.098-.098-.05-.098-.197-.098-.393V9.762c0-.343 0-.637.049-.883.049-.245.147-.49.245-.686.147-.197.295-.344.54-.49.245-.148.539-.246.932-.344.147 0 .343-.05.589-.098.294-.05.588-.05.883-.099.294 0 .637-.049.932-.049.294 0 .588-.049.785-.049 1.128 0 2.06.098 2.845.344.785.196 1.472.588 2.06 1.03.638-.442 1.374-.736 2.257-.981a10.045 10.045 0 0 1 2.747-.393c1.129 0 2.11.147 2.895.49.785.344 1.422.786 1.962 1.374a5.263 5.263 0 0 1 1.079 2.159c.246.834.344 1.766.344 2.747v7.604h.098zm15.502-7.015c-.098.294-.245.54-.442.736-.196.196-.441.294-.686.392-.246.098-.54.098-.883.098h-7.261c0 .687.147 1.325.344 1.816.196.49.49.883.833 1.177.344.294.736.54 1.178.638.441.147.932.196 1.472.196a6.84 6.84 0 0 0 1.717-.196 10.25 10.25 0 0 0 1.471-.54c.295-.147.491-.098.589.147l.736 1.57c.147.294.049.49-.196.638a6.037 6.037 0 0 1-2.257.883c-.834.147-1.619.245-2.355.245-2.207 0-3.875-.589-5.053-1.815-1.177-1.177-1.717-3.09-1.717-5.69 0-1.227.147-2.306.491-3.239.343-.932.785-1.766 1.324-2.403a6.115 6.115 0 0 1 2.061-1.472 6.486 6.486 0 0 1 2.6-.54c2.109 0 3.63.54 4.66 1.62 1.031 1.078 1.521 2.55 1.521 4.463 0 .54-.049.932-.147 1.276z" fill="#00BAFF"/><rect x="140" width="255" height="29.5" rx="2" fill="#00BAFF"/><path d="M157.676 10.072v9.352h-6.328c.532-.84.896-1.764 1.344-5.124l.532-4.228h4.452zm-9.772 9.324l-.812.084c-.784.084-.896.532-.896 1.092l.336 5.432c0 .252.112.364.336.364h1.988c.252 0 .364-.14.392-.392L149.5 22h9.912l.14 3.976c.028.252.14.392.364.392h2.044c.252 0 .364-.14.364-.392l.364-5.432c0-.532-.112-.952-.868-1.036l-.868-.084V8.868c0-.98-.224-1.568-1.596-1.568h-7.028c-1.26 0-1.792.476-1.932 1.512l-.952 6.412c-.28 2.044-.588 3.22-1.54 4.172zm17.498-11.648v12.908c0 .896.448 1.344 1.372 1.344h.952c.784 0 1.12-.168 1.596-.924l4.06-6.3 1.68-2.688h.168v9.464c0 .42.14.448.504.448h2.24c.364 0 .504-.028.504-.448V8.644c0-.98-.532-1.344-1.4-1.344h-1.008c-.896 0-1.12.224-1.596.924-3.108 4.984-3.528 5.684-3.976 6.356l-1.736 2.8h-.112V7.748c0-.42-.112-.448-.532-.448h-2.212c-.364 0-.504.028-.504.448zm23.119 11.704c-2.884 0-3.64-2.1-3.64-4.704 0-2.548 1.008-4.872 3.584-4.872 1.092 0 2.044.28 2.94.616.448.196.56.112.7-.196l.7-1.652c.196-.364.112-.504-.224-.7-1.26-.672-2.716-.98-4.256-.98-4.144 0-6.776 3.052-6.776 7.784 0 5.012 2.296 7.56 6.468 7.56 1.54 0 3.416-.196 4.956-1.064.308-.168.364-.392.168-.7l-.7-1.624c-.112-.308-.224-.392-.644-.196-.784.364-2.072.728-3.276.728zm20.333 2.072V8.644c0-.644-.308-1.344-1.4-1.344H197.29c-1.092 0-1.372.7-1.372 1.344v12.88c0 .42.168.476.532.476h2.184c.42 0 .532-.056.532-.476v-11.48h6.412v11.48c0 .42.168.476.532.476h2.184c.42 0 .56-.056.56-.476zm15.59-1.12v-8.4c0-3.276-1.736-5.04-5.628-5.04-1.652 0-3.64.224-5.208.812-.252.084-.336.28-.252.588l.392 1.596c.084.336.224.392.644.28.924-.308 2.632-.56 3.892-.56 2.38 0 2.884 1.036 2.884 2.464v.476h-3.136c-4.48 0-6.104 2.408-6.104 5.012 0 2.548 1.316 4.676 6.272 4.676 1.792 0 4.06-.224 5.712-.98.364-.168.532-.476.532-.924zm-3.304-5.292v4.116c-.98.392-2.38.448-2.912.448-1.792 0-2.968-.56-2.968-2.156 0-2.24 1.96-2.408 3.192-2.408h2.688zm10.21 6.328v-5.964h6.16v5.964c0 .448.196.56.616.56h2.044c.476 0 .588-.084.588-.56V7.832c0-.448-.112-.532-.588-.532h-2.044c-.42 0-.616.112-.616.532v4.984h-6.16V7.832c0-.448-.168-.532-.616-.532h-2.044c-.42 0-.616.112-.616.532V21.44c0 .448.196.56.616.56h2.044c.448 0 .616-.084.616-.56zm19.46-1.988c-2.884 0-3.64-2.1-3.64-4.704 0-2.548 1.008-4.872 3.584-4.872 1.092 0 2.044.28 2.94.616.448.196.56.112.7-.196l.7-1.652c.196-.364.112-.504-.224-.7-1.26-.672-2.716-.98-4.256-.98-4.144 0-6.776 3.052-6.776 7.784 0 5.012 2.296 7.56 6.468 7.56 1.54 0 3.416-.196 4.956-1.064.308-.168.364-.392.168-.7l-.7-1.624c-.112-.308-.224-.392-.644-.196-.784.364-2.072.728-3.276.728zm13.529-12.488c-3.892 0-6.692 2.828-6.692 7.756 0 5.264 2.464 7.588 6.972 7.588 1.54 0 3.304-.28 4.732-1.148.252-.14.336-.336.196-.644l-.756-1.596c-.112-.252-.308-.308-.616-.168a7.843 7.843 0 0 1-3.276.756c-2.156 0-3.836-.98-3.92-3.892h7.448c1.26 0 2.24-.532 2.24-2.464 0-3.836-2.044-6.188-6.328-6.188zm.056 2.716c2.52 0 3.136 1.596 3.136 3.584h-6.44c.084-1.876 1.344-3.584 3.304-3.584zm12.537 17.528v-5.32c1.316.308 2.324.392 3.332.392 4.396 0 6.552-3.472 6.552-7.644 0-4.284-1.96-7.644-6.804-7.644-1.876 0-4.032.252-5.908 1.064-.364.196-.448.336-.448.672v18.48c0 .42.168.476.532.476h2.212c.42 0 .532-.056.532-.476zm6.496-12.6c0 3.64-1.596 4.872-3.752 4.872-.756 0-1.596-.084-2.744-.392v-8.904c.672-.224 1.848-.392 2.604-.392 2.408 0 3.892 1.26 3.892 4.816zm6.47-6.86v12.908c0 .896.448 1.344 1.372 1.344h.952c.784 0 1.12-.168 1.596-.924l4.06-6.3 1.68-2.688h.168v9.464c0 .42.14.448.504.448h2.24c.364 0 .504-.028.504-.448V8.644c0-.98-.532-1.344-1.4-1.344h-1.008c-.896 0-1.12.224-1.596.924-3.108 4.984-3.528 5.684-3.976 6.356l-1.736 2.8h-.112V7.748c0-.42-.112-.448-.532-.448h-2.212c-.364 0-.504.028-.504.448zm21.047 1.988c1.848 0 2.772.532 2.772 1.596 0 1.204-1.092 1.652-3.22 1.764-.7.028-1.036.308-1.036.84v.644c0 .644.364.812 1.036.812 2.772.028 3.752.784 3.752 1.988s-.924 2.268-3.472 2.268c-1.316 0-2.968-.364-4.004-.784-.448-.196-.56-.056-.672.196l-.672 1.54c-.112.308-.084.476.252.672 1.4.728 3.696 1.008 5.516 1.008 3.78 0 6.272-1.876 6.272-4.704 0-1.652-1.036-2.856-2.604-3.332v-.112c1.26-.672 2.128-1.82 2.128-3.248 0-2.576-2.212-3.892-5.488-3.892-1.988 0-3.752.42-5.124 1.12-.336.14-.364.28-.168.7l.56 1.456c.112.252.224.364.644.168 1.036-.364 2.492-.7 3.528-.7zm21.397 10.668v-8.4c0-3.276-1.736-5.04-5.628-5.04-1.652 0-3.64.224-5.208.812-.252.084-.336.28-.252.588l.392 1.596c.084.336.224.392.644.28.924-.308 2.632-.56 3.892-.56 2.38 0 2.884 1.036 2.884 2.464v.476h-3.136c-4.48 0-6.104 2.408-6.104 5.012 0 2.548 1.316 4.676 6.272 4.676 1.792 0 4.06-.224 5.712-.98.364-.168.532-.476.532-.924zm-3.304-5.292v4.116c-.98.392-2.38.448-2.912.448-1.792 0-2.968-.56-2.968-2.156 0-2.24 1.96-2.408 3.192-2.408h2.688zm19.646 4.228V7.832c0-.448-.168-.532-.588-.532h-2.072c-.42 0-.616.112-.616.532v11.536h-6.188V7.832c0-.448-.056-.532-.588-.532h-2.072c-.42 0-.588.112-.588.532V20.32c0 1.092.476 1.68 1.512 1.68h9.828l.168 3.976c.028.252.14.392.364.392h2.016c.252 0 .364-.14.392-.392l.308-5.516c.028-.448-.056-.952-.868-1.036l-1.008-.084zm4.515-11.592v12.908c0 .896.448 1.344 1.372 1.344h.952c.784 0 1.12-.168 1.596-.924l4.06-6.3 1.68-2.688h.168v9.464c0 .42.14.448.504.448h2.24c.364 0 .504-.028.504-.448V8.644c0-.98-.532-1.344-1.4-1.344h-1.008c-.896 0-1.12.224-1.596.924-3.108 4.984-3.528 5.684-3.976 6.356l-1.736 2.8h-.112V7.748c0-.42-.112-.448-.532-.448h-2.212c-.364 0-.504.028-.504.448zm25.639 8.484v5.32c0 .364.112.448.532.448h2.156c.364 0 .532-.084.532-.42V8.476c-.028-.784-.616-1.176-1.372-1.176h-5.992c-3.136 0-5.012 1.904-5.012 4.396 0 1.68.644 3.052 2.52 3.696v.028c-1.316.364-1.764 1.204-2.072 2.184l-1.26 3.892c-.028.028-.028.112-.028.196 0 .196.084.308.42.308h2.24c.308 0 .588-.056.7-.476l1.064-3.5c.448-1.484 1.288-1.792 2.716-1.792h2.856zm-5.936-4.368c0-.784.448-1.932 2.24-1.932h3.696v3.892h-3.556c-1.792 0-2.38-.868-2.38-1.96z" fill="#fff"/></svg>