<?xml version="1.0" standalone="no"?>
<!DOCTYPE svg PUBLIC "-//W3C//DTD SVG 20010904//EN"
 "http://www.w3.org/TR/2001/REC-SVG-20010904/DTD/svg10.dtd">
<svg version="1.0" xmlns="http://www.w3.org/2000/svg"
 width="260.000000pt" height="260.000000pt" viewBox="0 0 260.000000 260.000000"
 preserveAspectRatio="xMidYMid meet">
<metadata>
Created by potrace 1.11, written by Peter Selinger 2001-2013
</metadata>
<g transform="translate(0.000000,260.000000) scale(0.100000,-0.100000)"
fill="#000000" stroke="none">
<path d="M355 2025 c-25 -24 -25 -26 -26 -227 -1 -112 -1 -210 0 -219 1 -10
-64 -71 -164 -152 l-165 -136 118 -96 c64 -53 138 -115 165 -137 l48 -40 -1
-209 c-1 -220 3 -243 45 -259 36 -14 2139 -12 2169 1 13 6 29 22 35 36 8 17
11 228 11 709 0 725 0 730 -45 748 -9 3 -500 6 -1091 6 l-1075 0 -24 -25z"/>
</g>
</svg>
